;Layer: Drill PTH
;EasyEDA v6.2.46, 2019-11-25T11:18:34--3:00
;6be03af1206c45e6bdd76e27ce0583d0,8049b4892286493b98247746b8e7bc66,10
;Gerber Generator version 0.2
M48
INCH,LZ,00.0000
;Holesize 1 = 0.012 INCH
T01C0.012
;Holesize 2 = 0.035 INCH
T02C0.035
;Holesize 3 = 0.036 INCH
T03C0.036
;Holesize 4 = 0.039 INCH
T04C0.039
%
G05
G90
T01
X+003500Y+004000
X+003150Y+003550
X+005650Y+003750
X+005400Y+003500
X+014850Y+011900
X+015650Y+011900
X+016450Y+011850
X+004950Y+002900
X+007350Y+003200
X+005200Y+003200
X+007000Y+002950
X+004400Y+012650
X+007650Y+012700
X+008700Y+007000
X+007350Y+012550
X+008400Y+007000
X+005650Y+013000
X+005650Y+007000
X+005450Y+006500
X+004400Y+013000
X+005250Y+006250
X+005050Y+006000
X+004400Y+012300
X+004400Y+011950
X+004850Y+005750
X+022226Y+015850
X+000700Y+011150
X+000700Y+015850
X+004100Y+005000
X+004350Y+005250
X+003800Y+005500
X+003800Y+005850
X+014000Y+012750
X+011200Y+010200
X+015200Y+012750
X+011500Y+009900
X+011750Y+010200
X+016100Y+012750
X+016850Y+012750
X+017650Y+012600
X+010200Y+010850
X+009900Y+011100
X+009600Y+011350
X+010200Y+007000
X+009900Y+007000
X+009600Y+007000
X+009300Y+007000
X+009000Y+007000
X+002250Y+009650
X+002300Y+008650
X+001250Y+015600
X+002000Y+011950
X+002300Y+007750
X+012650Y+009050
X+009750Y+012150
X+010600Y+012050
X+009400Y+012150
X+010600Y+011350
X+020750Y+018200
X+007900Y+012450
X+008750Y+009050
X+002300Y+008200
X+002250Y+009150
X+002300Y+007300
X+006200Y+012800
T02
X+008500Y+012750
X+009500Y+012750
X+010500Y+012750
X+011500Y+012750
T03
X+007550Y+011150
X+007550Y+010150
X+007550Y+009150
X+007550Y+008150
X+007550Y+007150
X+007550Y+006150
T04
X+021500Y+013750
X+021500Y+014750
X+020500Y+013750
X+020500Y+014750
X+019500Y+013750
X+019502Y+014748
X+018500Y+013750
X+018502Y+014748
X+017500Y+013750
X+017500Y+014750
X+016502Y+013748
X+016502Y+014748
X+015502Y+013748
X+015502Y+014748
X+014502Y+013748
X+014502Y+014748
X+013502Y+013748
X+013502Y+014748
X+012500Y+013750
X+012502Y+014748
X+011502Y+013748
X+011502Y+014748
X+010502Y+013748
X+010502Y+014748
X+009502Y+013748
X+009502Y+014748
X+008502Y+013748
X+008502Y+014748
X+007502Y+013748
X+007502Y+014748
X+006502Y+013748
X+006502Y+014748
X+005502Y+013748
X+005502Y+014748
X+004502Y+013748
X+004502Y+014748
X+003502Y+013748
X+003502Y+014748
X+002502Y+013748
X+002502Y+014748
X+001505Y+013748
X+001505Y+014748
X+016500Y+000750
X+016500Y+001750
X+015500Y+000750
X+015500Y+001750
X+014500Y+000750
X+014500Y+001750
X+013500Y+000750
X+013500Y+001750
X+012500Y+000750
X+012500Y+001750
X+011500Y+000750
X+011500Y+001750
X+010500Y+000750
X+010500Y+001750
X+009500Y+000750
X+009500Y+001750
X+008500Y+000750
X+008500Y+001750
X+007500Y+000750
X+007500Y+001750
X+006500Y+000750
X+006500Y+001750
X+005500Y+000750
X+005500Y+001750
X+004500Y+000750
X+004500Y+001750
X+003500Y+000750
X+003500Y+001750
X+002500Y+000750
X+002500Y+001750
X+001501Y+000750
X+001501Y+001750
X+001498Y+002751
X+002500Y+002750
X+001500Y+003750
X+002500Y+003750
X+001500Y+004750
X+002500Y+004750
X+018150Y+011150
X+018150Y+009378
X+020709Y+009378
X+020750Y+011150
X+018100Y+005950
X+020700Y+005950
X+018100Y+004178
X+020659Y+004178
X+017628Y+008175
X+017628Y+007025
X+021171Y+007075
X+021171Y+008225
X+004150Y+010650
M30
