G04 Layer: TopSilkLayer*
G04 EasyEDA v6.2.46, 2019-11-25T11:18:34--3:00*
G04 6be03af1206c45e6bdd76e27ce0583d0,8049b4892286493b98247746b8e7bc66,10*
G04 Gerber Generator version 0.2*
G04 Scale: 100 percent, Rotated: No, Reflected: No *
G04 Dimensions in inches *
G04 leading zeros omitted , absolute positions ,2 integer and 4 decimal *
%FSLAX24Y24*%
%MOIN*%
G90*
G70D02*

%ADD10C,0.010000*%
%ADD20C,0.009000*%
%ADD21C,0.007000*%
%ADD22C,0.003937*%
%ADD23C,0.006000*%

%LPD*%
G54D10*
G01X870Y269D02*
G01X870Y15230D01*
G01X870Y15230D02*
G01X22130Y15230D01*
G01X22130Y15230D02*
G01X22129Y7553D01*
G01X19373Y7553D01*
G01X19369Y3813D01*
G01X22130Y3813D01*
G01X22130Y269D01*
G01X22129Y269D02*
G01X870Y269D01*
G01X22129Y3813D02*
G01X22129Y7750D01*
G54D20*
G01X21727Y19211D02*
G01X21727Y19238D01*
G01X21753Y19292D01*
G01X21781Y19321D01*
G01X21835Y19348D01*
G01X21944Y19348D01*
G01X22000Y19321D01*
G01X22027Y19292D01*
G01X22053Y19238D01*
G01X22053Y19184D01*
G01X22027Y19130D01*
G01X21972Y19048D01*
G01X21700Y18775D01*
G01X22081Y18775D01*
G01X22643Y19348D02*
G01X22371Y18775D01*
G01X22261Y19348D02*
G01X22643Y19348D01*
G54D21*
G01X17350Y2942D02*
G01X17350Y2465D01*
G01X17350Y2942D02*
G01X17555Y2942D01*
G01X17622Y2919D01*
G01X17644Y2896D01*
G01X17668Y2851D01*
G01X17668Y2784D01*
G01X17644Y2738D01*
G01X17622Y2715D01*
G01X17555Y2692D01*
G01X17350Y2692D01*
G01X17931Y2784D02*
G01X17885Y2761D01*
G01X17840Y2715D01*
G01X17818Y2646D01*
G01X17818Y2601D01*
G01X17840Y2534D01*
G01X17885Y2488D01*
G01X17931Y2465D01*
G01X18000Y2465D01*
G01X18044Y2488D01*
G01X18090Y2534D01*
G01X18114Y2601D01*
G01X18114Y2646D01*
G01X18090Y2715D01*
G01X18044Y2761D01*
G01X18000Y2784D01*
G01X17931Y2784D01*
G01X18535Y2715D02*
G01X18490Y2761D01*
G01X18444Y2784D01*
G01X18377Y2784D01*
G01X18331Y2761D01*
G01X18285Y2715D01*
G01X18264Y2646D01*
G01X18264Y2601D01*
G01X18285Y2534D01*
G01X18331Y2488D01*
G01X18377Y2465D01*
G01X18444Y2465D01*
G01X18490Y2488D01*
G01X18535Y2534D01*
G01X18685Y2942D02*
G01X18685Y2465D01*
G01X18914Y2784D02*
G01X18685Y2555D01*
G01X18777Y2646D02*
G01X18935Y2465D01*
G01X19085Y2646D02*
G01X19359Y2646D01*
G01X19359Y2692D01*
G01X19335Y2738D01*
G01X19314Y2761D01*
G01X19268Y2784D01*
G01X19200Y2784D01*
G01X19155Y2761D01*
G01X19109Y2715D01*
G01X19085Y2646D01*
G01X19085Y2601D01*
G01X19109Y2534D01*
G01X19155Y2488D01*
G01X19200Y2465D01*
G01X19268Y2465D01*
G01X19314Y2488D01*
G01X19359Y2534D01*
G01X19577Y2942D02*
G01X19577Y2555D01*
G01X19600Y2488D01*
G01X19644Y2465D01*
G01X19690Y2465D01*
G01X19509Y2784D02*
G01X19668Y2784D01*
G01X20509Y2875D02*
G01X20464Y2919D01*
G01X20394Y2942D01*
G01X20305Y2942D01*
G01X20235Y2919D01*
G01X20190Y2875D01*
G01X20190Y2828D01*
G01X20214Y2784D01*
G01X20235Y2761D01*
G01X20281Y2738D01*
G01X20418Y2692D01*
G01X20464Y2669D01*
G01X20485Y2646D01*
G01X20509Y2601D01*
G01X20509Y2534D01*
G01X20464Y2488D01*
G01X20394Y2465D01*
G01X20305Y2465D01*
G01X20235Y2488D01*
G01X20190Y2534D01*
G01X20659Y2942D02*
G01X20659Y2465D01*
G01X20659Y2942D02*
G01X20977Y2465D01*
G01X20977Y2942D02*
G01X20977Y2465D01*
G01X21127Y2942D02*
G01X21127Y2465D01*
G01X21127Y2942D02*
G01X21422Y2942D01*
G01X21127Y2715D02*
G01X21309Y2715D01*
G01X21127Y2465D02*
G01X21422Y2465D01*
G01X21890Y2875D02*
G01X21844Y2919D01*
G01X21777Y2942D01*
G01X21685Y2942D01*
G01X21618Y2919D01*
G01X21572Y2875D01*
G01X21572Y2828D01*
G01X21594Y2784D01*
G01X21618Y2761D01*
G01X21664Y2738D01*
G01X21800Y2692D01*
G01X21844Y2669D01*
G01X21868Y2646D01*
G01X21890Y2601D01*
G01X21890Y2534D01*
G01X21844Y2488D01*
G01X21777Y2465D01*
G01X21685Y2465D01*
G01X21618Y2488D01*
G01X21572Y2534D01*
G01X18440Y2113D02*
G01X18418Y2159D01*
G01X18372Y2205D01*
G01X18327Y2228D01*
G01X18235Y2228D01*
G01X18190Y2205D01*
G01X18144Y2159D01*
G01X18122Y2113D01*
G01X18100Y2046D01*
G01X18100Y1932D01*
G01X18122Y1863D01*
G01X18144Y1819D01*
G01X18190Y1773D01*
G01X18235Y1750D01*
G01X18327Y1750D01*
G01X18372Y1773D01*
G01X18418Y1819D01*
G01X18440Y1863D01*
G01X18864Y2069D02*
G01X18864Y1750D01*
G01X18864Y2000D02*
G01X18818Y2046D01*
G01X18772Y2069D01*
G01X18705Y2069D01*
G01X18659Y2046D01*
G01X18614Y2000D01*
G01X18590Y1932D01*
G01X18590Y1886D01*
G01X18614Y1819D01*
G01X18659Y1773D01*
G01X18705Y1750D01*
G01X18772Y1750D01*
G01X18818Y1773D01*
G01X18864Y1819D01*
G01X19014Y2069D02*
G01X19014Y1750D01*
G01X19014Y1932D02*
G01X19035Y2000D01*
G01X19081Y2046D01*
G01X19127Y2069D01*
G01X19194Y2069D01*
G01X19414Y2228D02*
G01X19414Y1840D01*
G01X19435Y1773D01*
G01X19481Y1750D01*
G01X19527Y1750D01*
G01X19344Y2069D02*
G01X19505Y2069D01*
G01X19677Y1955D02*
G01X20085Y1955D01*
G01X20235Y2228D02*
G01X20235Y1750D01*
G01X20235Y2228D02*
G01X20440Y2228D01*
G01X20509Y2205D01*
G01X20531Y2182D01*
G01X20555Y2136D01*
G01X20555Y2090D01*
G01X20531Y2046D01*
G01X20509Y2023D01*
G01X20440Y2000D01*
G01X20235Y2000D01*
G01X20394Y2000D02*
G01X20555Y1750D01*
G01X20705Y2228D02*
G01X20818Y1750D01*
G01X20931Y2228D02*
G01X20818Y1750D01*
G01X20931Y2228D02*
G01X21044Y1750D01*
G01X21159Y2228D02*
G01X21044Y1750D01*
G54D22*
G01X17100Y688D02*
G01X17100Y496D01*
G01X17100Y634D02*
G01X17140Y675D01*
G01X17168Y688D01*
G01X17209Y688D01*
G01X17235Y675D01*
G01X17250Y634D01*
G01X17250Y496D01*
G01X17339Y784D02*
G01X17353Y769D01*
G01X17367Y784D01*
G01X17353Y796D01*
G01X17339Y784D01*
G01X17353Y688D02*
G01X17353Y496D01*
G01X17456Y688D02*
G01X17456Y496D01*
G01X17456Y634D02*
G01X17497Y675D01*
G01X17525Y688D01*
G01X17565Y688D01*
G01X17593Y675D01*
G01X17606Y634D01*
G01X17606Y496D01*
G01X17738Y784D02*
G01X17738Y551D01*
G01X17752Y511D01*
G01X17778Y496D01*
G01X17806Y496D01*
G01X17697Y688D02*
G01X17793Y688D01*
G01X17896Y605D02*
G01X18060Y605D01*
G01X18060Y634D01*
G01X18046Y661D01*
G01X18032Y675D01*
G01X18005Y688D01*
G01X17964Y688D01*
G01X17936Y675D01*
G01X17910Y646D01*
G01X17896Y605D01*
G01X17896Y578D01*
G01X17910Y538D01*
G01X17936Y511D01*
G01X17964Y496D01*
G01X18005Y496D01*
G01X18032Y511D01*
G01X18060Y538D01*
G01X18150Y688D02*
G01X18150Y496D01*
G01X18150Y634D02*
G01X18190Y675D01*
G01X18218Y688D01*
G01X18259Y688D01*
G01X18285Y675D01*
G01X18300Y634D01*
G01X18300Y496D01*
G01X18553Y784D02*
G01X18553Y496D01*
G01X18553Y646D02*
G01X18526Y675D01*
G01X18498Y688D01*
G01X18457Y688D01*
G01X18431Y675D01*
G01X18403Y646D01*
G01X18389Y605D01*
G01X18389Y578D01*
G01X18403Y538D01*
G01X18431Y511D01*
G01X18457Y496D01*
G01X18498Y496D01*
G01X18526Y511D01*
G01X18553Y538D01*
G01X18643Y688D02*
G01X18643Y551D01*
G01X18656Y511D01*
G01X18685Y496D01*
G01X18725Y496D01*
G01X18752Y511D01*
G01X18793Y551D01*
G01X18793Y688D02*
G01X18793Y496D01*
G01X18884Y784D02*
G01X18897Y769D01*
G01X18910Y784D01*
G01X18897Y796D01*
G01X18884Y784D01*
G01X18897Y688D02*
G01X18897Y496D01*
G01X19001Y688D02*
G01X19001Y496D01*
G01X19001Y634D02*
G01X19042Y675D01*
G01X19068Y688D01*
G01X19110Y688D01*
G01X19136Y675D01*
G01X19151Y634D01*
G01X19151Y496D01*
G01X19309Y688D02*
G01X19281Y675D01*
G01X19255Y646D01*
G01X19240Y605D01*
G01X19240Y578D01*
G01X19255Y538D01*
G01X19281Y511D01*
G01X19309Y496D01*
G01X19350Y496D01*
G01X19377Y511D01*
G01X19405Y538D01*
G01X19418Y578D01*
G01X19418Y605D01*
G01X19405Y646D01*
G01X19377Y675D01*
G01X19350Y688D01*
G01X19309Y688D01*
G01X19713Y675D02*
G01X19698Y701D01*
G01X19672Y715D01*
G01X19631Y715D01*
G01X19603Y701D01*
G01X19589Y688D01*
G01X19576Y646D01*
G01X19576Y605D01*
G01X19589Y578D01*
G01X19617Y565D01*
G01X19657Y565D01*
G01X19685Y578D01*
G01X19698Y605D01*
G01X19631Y715D02*
G01X19603Y688D01*
G01X19589Y646D01*
G01X19589Y605D01*
G01X19603Y578D01*
G01X19617Y565D01*
G01X19713Y715D02*
G01X19698Y605D01*
G01X19698Y578D01*
G01X19726Y565D01*
G01X19753Y565D01*
G01X19781Y592D01*
G01X19794Y634D01*
G01X19794Y661D01*
G01X19781Y701D01*
G01X19767Y728D01*
G01X19739Y755D01*
G01X19713Y769D01*
G01X19672Y784D01*
G01X19631Y784D01*
G01X19589Y769D01*
G01X19563Y755D01*
G01X19535Y728D01*
G01X19522Y701D01*
G01X19507Y661D01*
G01X19507Y619D01*
G01X19522Y578D01*
G01X19535Y551D01*
G01X19563Y525D01*
G01X19589Y511D01*
G01X19631Y496D01*
G01X19672Y496D01*
G01X19713Y511D01*
G01X19739Y525D01*
G01X19753Y538D01*
G01X19726Y715D02*
G01X19713Y605D01*
G01X19713Y578D01*
G01X19726Y565D01*
G01X20047Y688D02*
G01X20047Y469D01*
G01X20035Y428D01*
G01X20021Y415D01*
G01X19993Y401D01*
G01X19952Y401D01*
G01X19925Y415D01*
G01X20047Y646D02*
G01X20021Y675D01*
G01X19993Y688D01*
G01X19952Y688D01*
G01X19925Y675D01*
G01X19897Y646D01*
G01X19885Y605D01*
G01X19885Y578D01*
G01X19897Y538D01*
G01X19925Y511D01*
G01X19952Y496D01*
G01X19993Y496D01*
G01X20021Y511D01*
G01X20047Y538D01*
G01X20138Y688D02*
G01X20138Y496D01*
G01X20138Y634D02*
G01X20178Y675D01*
G01X20206Y688D01*
G01X20247Y688D01*
G01X20275Y675D01*
G01X20288Y634D01*
G01X20288Y496D01*
G01X20288Y634D02*
G01X20328Y675D01*
G01X20356Y688D01*
G01X20397Y688D01*
G01X20425Y675D01*
G01X20438Y634D01*
G01X20438Y496D01*
G01X20692Y688D02*
G01X20692Y496D01*
G01X20692Y646D02*
G01X20664Y675D01*
G01X20636Y688D01*
G01X20596Y688D01*
G01X20568Y675D01*
G01X20542Y646D01*
G01X20527Y605D01*
G01X20527Y578D01*
G01X20542Y538D01*
G01X20568Y511D01*
G01X20596Y496D01*
G01X20636Y496D01*
G01X20664Y511D01*
G01X20692Y538D01*
G01X20781Y784D02*
G01X20794Y769D01*
G01X20809Y784D01*
G01X20794Y796D01*
G01X20781Y784D01*
G01X20794Y688D02*
G01X20794Y496D01*
G01X20898Y784D02*
G01X20898Y496D01*
G01X21002Y565D02*
G01X20989Y551D01*
G01X21002Y538D01*
G01X21015Y551D01*
G01X21002Y565D01*
G01X21269Y646D02*
G01X21243Y675D01*
G01X21214Y688D01*
G01X21175Y688D01*
G01X21147Y675D01*
G01X21119Y646D01*
G01X21106Y605D01*
G01X21106Y578D01*
G01X21119Y538D01*
G01X21147Y511D01*
G01X21175Y496D01*
G01X21214Y496D01*
G01X21243Y511D01*
G01X21269Y538D01*
G01X21427Y688D02*
G01X21401Y675D01*
G01X21373Y646D01*
G01X21360Y605D01*
G01X21360Y578D01*
G01X21373Y538D01*
G01X21401Y511D01*
G01X21427Y496D01*
G01X21468Y496D01*
G01X21496Y511D01*
G01X21523Y538D01*
G01X21536Y578D01*
G01X21536Y605D01*
G01X21523Y646D01*
G01X21496Y675D01*
G01X21468Y688D01*
G01X21427Y688D01*
G01X21627Y688D02*
G01X21627Y496D01*
G01X21627Y634D02*
G01X21668Y675D01*
G01X21694Y688D01*
G01X21735Y688D01*
G01X21764Y675D01*
G01X21777Y634D01*
G01X21777Y496D01*
G01X21777Y634D02*
G01X21818Y675D01*
G01X21844Y688D01*
G01X21885Y688D01*
G01X21914Y675D01*
G01X21927Y634D01*
G01X21927Y496D01*
G54D23*
G01X11076Y170D02*
G01X11076Y-136D01*
G01X11096Y-197D01*
G01X11136Y-238D01*
G01X11198Y-259D01*
G01X11239Y-259D01*
G01X11301Y-238D01*
G01X11342Y-197D01*
G01X11361Y-136D01*
G01X11361Y170D01*
G01X11497Y88D02*
G01X11538Y108D01*
G01X11600Y170D01*
G01X11600Y-259D01*
G54D22*
G01X22051Y14167D02*
G01X21979Y14355D01*
G01X21908Y14167D02*
G01X21979Y14355D01*
G01X21849Y14167D02*
G01X21849Y14355D01*
G01X21790Y14230D02*
G01X21790Y14355D01*
G01X21790Y14265D02*
G01X21763Y14238D01*
G01X21745Y14230D01*
G01X21718Y14230D01*
G01X21700Y14238D01*
G01X21691Y14265D01*
G01X21691Y14355D01*
G01X22051Y13183D02*
G01X21979Y13368D01*
G01X21907Y13183D02*
G01X21979Y13368D01*
G01X21849Y13183D02*
G01X21849Y13368D01*
G01X21790Y13242D02*
G01X21790Y13368D01*
G01X21790Y13281D02*
G01X21763Y13254D01*
G01X21744Y13242D01*
G01X21717Y13242D01*
G01X21700Y13254D01*
G01X21690Y13281D01*
G01X21690Y13368D01*
G01X21034Y14228D02*
G01X21044Y14210D01*
G01X21061Y14194D01*
G01X21079Y14183D01*
G01X21114Y14183D01*
G01X21132Y14194D01*
G01X21152Y14210D01*
G01X21159Y14228D01*
G01X21169Y14255D01*
G01X21169Y14302D01*
G01X21159Y14328D01*
G01X21152Y14346D01*
G01X21132Y14362D01*
G01X21114Y14373D01*
G01X21079Y14373D01*
G01X21061Y14362D01*
G01X21044Y14346D01*
G01X21034Y14328D01*
G01X21034Y14302D01*
G01X21079Y14302D02*
G01X21034Y14302D01*
G01X20977Y14248D02*
G01X20977Y14373D01*
G01X20977Y14281D02*
G01X20950Y14255D01*
G01X20931Y14248D01*
G01X20904Y14248D01*
G01X20885Y14255D01*
G01X20877Y14281D01*
G01X20877Y14373D01*
G01X20710Y14183D02*
G01X20710Y14373D01*
G01X20710Y14275D02*
G01X20729Y14255D01*
G01X20748Y14248D01*
G01X20775Y14248D01*
G01X20790Y14255D01*
G01X20808Y14275D01*
G01X20819Y14302D01*
G01X20819Y14319D01*
G01X20808Y14346D01*
G01X20790Y14362D01*
G01X20775Y14373D01*
G01X20748Y14373D01*
G01X20729Y14362D01*
G01X20710Y14346D01*
G01X21035Y13228D02*
G01X21044Y13210D01*
G01X21062Y13191D01*
G01X21080Y13183D01*
G01X21115Y13183D01*
G01X21133Y13191D01*
G01X21151Y13210D01*
G01X21160Y13228D01*
G01X21169Y13255D01*
G01X21169Y13297D01*
G01X21160Y13326D01*
G01X21151Y13343D01*
G01X21133Y13362D01*
G01X21115Y13370D01*
G01X21080Y13370D01*
G01X21062Y13362D01*
G01X21044Y13343D01*
G01X21035Y13326D01*
G01X21035Y13297D01*
G01X21080Y13297D02*
G01X21035Y13297D01*
G01X20976Y13243D02*
G01X20976Y13370D01*
G01X20976Y13282D02*
G01X20949Y13255D01*
G01X20931Y13243D01*
G01X20904Y13243D01*
G01X20885Y13255D01*
G01X20877Y13282D01*
G01X20877Y13370D01*
G01X20710Y13183D02*
G01X20710Y13370D01*
G01X20710Y13270D02*
G01X20729Y13255D01*
G01X20747Y13243D01*
G01X20774Y13243D01*
G01X20791Y13255D01*
G01X20808Y13270D01*
G01X20818Y13297D01*
G01X20818Y13316D01*
G01X20808Y13343D01*
G01X20791Y13362D01*
G01X20774Y13370D01*
G01X20747Y13370D01*
G01X20729Y13362D01*
G01X20710Y13343D01*
G01X20062Y14183D02*
G01X20151Y14183D01*
G01X20160Y14262D01*
G01X20151Y14254D01*
G01X20124Y14245D01*
G01X20097Y14245D01*
G01X20071Y14254D01*
G01X20052Y14272D01*
G01X20044Y14299D01*
G01X20044Y14318D01*
G01X20052Y14345D01*
G01X20071Y14362D01*
G01X20097Y14372D01*
G01X20124Y14372D01*
G01X20151Y14362D01*
G01X20160Y14352D01*
G01X20169Y14335D01*
G01X19985Y14183D02*
G01X19912Y14372D01*
G01X19842Y14183D02*
G01X19912Y14372D01*
G01X20062Y13183D02*
G01X20151Y13183D01*
G01X20160Y13263D01*
G01X20151Y13254D01*
G01X20124Y13244D01*
G01X20097Y13244D01*
G01X20071Y13254D01*
G01X20053Y13271D01*
G01X20044Y13298D01*
G01X20044Y13317D01*
G01X20053Y13344D01*
G01X20071Y13362D01*
G01X20097Y13371D01*
G01X20124Y13371D01*
G01X20151Y13362D01*
G01X20160Y13353D01*
G01X20169Y13335D01*
G01X19985Y13183D02*
G01X19912Y13371D01*
G01X19842Y13183D02*
G01X19912Y13371D01*
G01X19151Y14183D02*
G01X19053Y14183D01*
G01X19106Y14254D01*
G01X19080Y14254D01*
G01X19062Y14263D01*
G01X19053Y14273D01*
G01X19044Y14300D01*
G01X19044Y14317D01*
G01X19053Y14344D01*
G01X19071Y14363D01*
G01X19097Y14371D01*
G01X19124Y14371D01*
G01X19151Y14363D01*
G01X19160Y14352D01*
G01X19169Y14335D01*
G01X18976Y14326D02*
G01X18985Y14335D01*
G01X18976Y14344D01*
G01X18967Y14335D01*
G01X18976Y14326D01*
G01X18889Y14183D02*
G01X18792Y14183D01*
G01X18845Y14254D01*
G01X18819Y14254D01*
G01X18800Y14263D01*
G01X18792Y14273D01*
G01X18782Y14300D01*
G01X18782Y14317D01*
G01X18792Y14344D01*
G01X18808Y14363D01*
G01X18835Y14371D01*
G01X18862Y14371D01*
G01X18889Y14363D01*
G01X18899Y14352D01*
G01X18908Y14335D01*
G01X18723Y14183D02*
G01X18652Y14371D01*
G01X18580Y14183D02*
G01X18652Y14371D01*
G01X19151Y13183D02*
G01X19053Y13183D01*
G01X19106Y13254D01*
G01X19080Y13254D01*
G01X19062Y13264D01*
G01X19053Y13272D01*
G01X19044Y13300D01*
G01X19044Y13318D01*
G01X19053Y13345D01*
G01X19071Y13362D01*
G01X19097Y13372D01*
G01X19124Y13372D01*
G01X19151Y13362D01*
G01X19160Y13354D01*
G01X19169Y13335D01*
G01X18976Y13327D02*
G01X18985Y13335D01*
G01X18976Y13345D01*
G01X18966Y13335D01*
G01X18976Y13327D01*
G01X18889Y13183D02*
G01X18791Y13183D01*
G01X18845Y13254D01*
G01X18818Y13254D01*
G01X18800Y13264D01*
G01X18791Y13272D01*
G01X18782Y13300D01*
G01X18782Y13318D01*
G01X18791Y13345D01*
G01X18808Y13362D01*
G01X18835Y13372D01*
G01X18862Y13372D01*
G01X18889Y13362D01*
G01X18899Y13354D01*
G01X18908Y13335D01*
G01X18723Y13183D02*
G01X18652Y13372D01*
G01X18580Y13183D02*
G01X18652Y13372D01*
G01X18169Y14183D02*
G01X18169Y14370D01*
G01X18169Y14183D02*
G01X18088Y14183D01*
G01X18062Y14191D01*
G01X18053Y14199D01*
G01X18044Y14218D01*
G01X18044Y14235D01*
G01X18053Y14252D01*
G01X18062Y14262D01*
G01X18088Y14270D01*
G01X18169Y14270D01*
G01X18106Y14270D02*
G01X18044Y14370D01*
G01X17886Y14270D02*
G01X17895Y14252D01*
G01X17922Y14245D01*
G01X17949Y14245D01*
G01X17976Y14252D01*
G01X17985Y14270D01*
G01X17976Y14289D01*
G01X17958Y14297D01*
G01X17913Y14308D01*
G01X17895Y14316D01*
G01X17886Y14335D01*
G01X17886Y14343D01*
G01X17895Y14362D01*
G01X17922Y14370D01*
G01X17949Y14370D01*
G01X17976Y14362D01*
G01X17985Y14343D01*
G01X17800Y14183D02*
G01X17800Y14335D01*
G01X17791Y14362D01*
G01X17774Y14370D01*
G01X17756Y14370D01*
G01X17827Y14245D02*
G01X17765Y14245D01*
G01X18097Y13183D02*
G01X18169Y13367D01*
G01X18097Y13183D02*
G01X18026Y13367D01*
G01X18142Y13308D02*
G01X18053Y13308D01*
G01X17967Y13183D02*
G01X17967Y13367D01*
G01X17967Y13183D02*
G01X17886Y13183D01*
G01X17859Y13189D01*
G01X17850Y13198D01*
G01X17842Y13215D01*
G01X17842Y13234D01*
G01X17850Y13254D01*
G01X17859Y13261D01*
G01X17886Y13269D01*
G01X17967Y13269D01*
G01X17904Y13269D02*
G01X17842Y13367D01*
G01X17782Y13296D02*
G01X17675Y13296D01*
G01X17675Y13281D01*
G01X17684Y13261D01*
G01X17693Y13254D01*
G01X17711Y13242D01*
G01X17738Y13242D01*
G01X17756Y13254D01*
G01X17774Y13269D01*
G01X17782Y13296D01*
G01X17782Y13314D01*
G01X17774Y13340D01*
G01X17756Y13361D01*
G01X17738Y13367D01*
G01X17711Y13367D01*
G01X17693Y13361D01*
G01X17675Y13340D01*
G01X17544Y13183D02*
G01X17562Y13183D01*
G01X17580Y13189D01*
G01X17589Y13215D01*
G01X17589Y13367D01*
G01X17616Y13242D02*
G01X17553Y13242D01*
G01X17107Y14183D02*
G01X17107Y14368D01*
G01X17169Y14183D02*
G01X17044Y14183D01*
G01X16986Y14243D02*
G01X16887Y14368D01*
G01X16887Y14243D02*
G01X16986Y14368D01*
G01X17169Y13183D02*
G01X17169Y13369D01*
G01X17169Y13183D02*
G01X17088Y13183D01*
G01X17062Y13190D01*
G01X17053Y13200D01*
G01X17044Y13217D01*
G01X17044Y13235D01*
G01X17053Y13252D01*
G01X17062Y13261D01*
G01X17088Y13270D01*
G01X17169Y13270D01*
G01X17106Y13270D02*
G01X17044Y13369D01*
G01X16985Y13244D02*
G01X16886Y13369D01*
G01X16886Y13244D02*
G01X16985Y13369D01*
G01X16169Y14183D02*
G01X16169Y14369D01*
G01X16169Y14183D02*
G01X16105Y14183D01*
G01X16080Y14190D01*
G01X16061Y14208D01*
G01X16053Y14225D01*
G01X16044Y14252D01*
G01X16044Y14297D01*
G01X16053Y14324D01*
G01X16061Y14342D01*
G01X16080Y14362D01*
G01X16105Y14369D01*
G01X16169Y14369D01*
G01X15967Y14183D02*
G01X15868Y14183D01*
G01X15922Y14252D01*
G01X15895Y14252D01*
G01X15877Y14262D01*
G01X15868Y14270D01*
G01X15859Y14297D01*
G01X15859Y14315D01*
G01X15868Y14342D01*
G01X15886Y14362D01*
G01X15913Y14369D01*
G01X15940Y14369D01*
G01X15967Y14362D01*
G01X15976Y14352D01*
G01X15984Y14335D01*
G01X16169Y13183D02*
G01X16169Y13371D01*
G01X16169Y13183D02*
G01X16106Y13183D01*
G01X16080Y13192D01*
G01X16062Y13209D01*
G01X16053Y13227D01*
G01X16044Y13254D01*
G01X16044Y13298D01*
G01X16053Y13325D01*
G01X16062Y13344D01*
G01X16080Y13362D01*
G01X16106Y13371D01*
G01X16169Y13371D01*
G01X15976Y13227D02*
G01X15976Y13217D01*
G01X15967Y13200D01*
G01X15958Y13192D01*
G01X15940Y13183D01*
G01X15904Y13183D01*
G01X15886Y13192D01*
G01X15877Y13200D01*
G01X15868Y13217D01*
G01X15868Y13236D01*
G01X15877Y13254D01*
G01X15895Y13281D01*
G01X15985Y13371D01*
G01X15859Y13371D01*
G01X15169Y14183D02*
G01X15169Y14369D01*
G01X15169Y14183D02*
G01X15108Y14183D01*
G01X15081Y14191D01*
G01X15064Y14208D01*
G01X15054Y14225D01*
G01X15044Y14252D01*
G01X15044Y14296D01*
G01X15054Y14323D01*
G01X15064Y14344D01*
G01X15081Y14362D01*
G01X15108Y14369D01*
G01X15169Y14369D01*
G01X14879Y14183D02*
G01X14967Y14183D01*
G01X14977Y14262D01*
G01X14967Y14252D01*
G01X14940Y14244D01*
G01X14914Y14244D01*
G01X14887Y14252D01*
G01X14869Y14269D01*
G01X14860Y14296D01*
G01X14860Y14316D01*
G01X14869Y14344D01*
G01X14887Y14362D01*
G01X14914Y14369D01*
G01X14940Y14369D01*
G01X14967Y14362D01*
G01X14977Y14350D01*
G01X14987Y14335D01*
G01X15083Y13183D02*
G01X15083Y13369D01*
G01X15083Y13183D02*
G01X15021Y13183D01*
G01X14995Y13190D01*
G01X14977Y13208D01*
G01X14968Y13227D01*
G01X14958Y13253D01*
G01X14958Y13300D01*
G01X14968Y13327D01*
G01X14977Y13342D01*
G01X14995Y13361D01*
G01X15021Y13369D01*
G01X15083Y13369D01*
G01X14810Y13183D02*
G01X14900Y13308D01*
G01X14764Y13308D01*
G01X14810Y13183D02*
G01X14810Y13369D01*
G01X14169Y14183D02*
G01X14169Y14367D01*
G01X14169Y14183D02*
G01X14105Y14183D01*
G01X14080Y14190D01*
G01X14063Y14208D01*
G01X14053Y14223D01*
G01X14044Y14250D01*
G01X14044Y14296D01*
G01X14053Y14321D01*
G01X14063Y14342D01*
G01X14080Y14363D01*
G01X14105Y14367D01*
G01X14169Y14367D01*
G01X13859Y14183D02*
G01X13949Y14367D01*
G01X13986Y14183D02*
G01X13859Y14183D01*
G01X14169Y13183D02*
G01X14169Y13369D01*
G01X14169Y13183D02*
G01X14107Y13183D01*
G01X14080Y13190D01*
G01X14062Y13208D01*
G01X14053Y13225D01*
G01X14044Y13254D01*
G01X14044Y13298D01*
G01X14053Y13325D01*
G01X14062Y13342D01*
G01X14080Y13361D01*
G01X14107Y13369D01*
G01X14169Y13369D01*
G01X13878Y13208D02*
G01X13886Y13190D01*
G01X13913Y13183D01*
G01X13932Y13183D01*
G01X13958Y13190D01*
G01X13976Y13217D01*
G01X13985Y13261D01*
G01X13985Y13308D01*
G01X13976Y13342D01*
G01X13958Y13361D01*
G01X13932Y13369D01*
G01X13922Y13369D01*
G01X13895Y13361D01*
G01X13878Y13342D01*
G01X13868Y13315D01*
G01X13868Y13308D01*
G01X13878Y13281D01*
G01X13895Y13261D01*
G01X13922Y13254D01*
G01X13932Y13254D01*
G01X13958Y13261D01*
G01X13976Y13281D01*
G01X13985Y13308D01*
G01X13169Y14183D02*
G01X13169Y14370D01*
G01X13169Y14183D02*
G01X13106Y14183D01*
G01X13080Y14191D01*
G01X13062Y14208D01*
G01X13053Y14226D01*
G01X13044Y14253D01*
G01X13044Y14299D01*
G01X13053Y14326D01*
G01X13062Y14343D01*
G01X13080Y14362D01*
G01X13106Y14370D01*
G01X13169Y14370D01*
G01X12868Y14245D02*
G01X12877Y14272D01*
G01X12895Y14289D01*
G01X12922Y14299D01*
G01X12931Y14299D01*
G01X12958Y14289D01*
G01X12976Y14272D01*
G01X12985Y14245D01*
G01X12985Y14235D01*
G01X12976Y14208D01*
G01X12958Y14191D01*
G01X12931Y14183D01*
G01X12922Y14183D01*
G01X12895Y14191D01*
G01X12877Y14208D01*
G01X12868Y14245D01*
G01X12868Y14289D01*
G01X12877Y14335D01*
G01X12895Y14362D01*
G01X12922Y14370D01*
G01X12940Y14370D01*
G01X12967Y14362D01*
G01X12976Y14343D01*
G01X13169Y13183D02*
G01X13169Y13370D01*
G01X13169Y13183D02*
G01X13107Y13183D01*
G01X13081Y13191D01*
G01X13063Y13210D01*
G01X13054Y13225D01*
G01X13044Y13252D01*
G01X13044Y13298D01*
G01X13054Y13325D01*
G01X13063Y13342D01*
G01X13081Y13361D01*
G01X13107Y13370D01*
G01X13169Y13370D01*
G01X12940Y13183D02*
G01X12967Y13191D01*
G01X12977Y13210D01*
G01X12977Y13225D01*
G01X12967Y13245D01*
G01X12950Y13252D01*
G01X12913Y13262D01*
G01X12887Y13273D01*
G01X12869Y13289D01*
G01X12860Y13308D01*
G01X12860Y13335D01*
G01X12869Y13352D01*
G01X12878Y13361D01*
G01X12905Y13370D01*
G01X12940Y13370D01*
G01X12967Y13361D01*
G01X12977Y13352D01*
G01X12986Y13335D01*
G01X12986Y13308D01*
G01X12977Y13289D01*
G01X12959Y13273D01*
G01X12932Y13262D01*
G01X12896Y13252D01*
G01X12878Y13245D01*
G01X12869Y13225D01*
G01X12869Y13210D01*
G01X12878Y13191D01*
G01X12905Y13183D01*
G01X12940Y13183D01*
G01X12168Y14183D02*
G01X12168Y14373D01*
G01X12168Y14183D02*
G01X12105Y14183D01*
G01X12078Y14193D01*
G01X12061Y14210D01*
G01X12051Y14227D01*
G01X12043Y14254D01*
G01X12043Y14300D01*
G01X12051Y14327D01*
G01X12061Y14345D01*
G01X12078Y14364D01*
G01X12105Y14373D01*
G01X12168Y14373D01*
G01X11984Y14220D02*
G01X11966Y14210D01*
G01X11938Y14183D01*
G01X11938Y14373D01*
G01X11880Y14220D02*
G01X11861Y14210D01*
G01X11834Y14183D01*
G01X11834Y14373D01*
G01X12169Y13183D02*
G01X12169Y13371D01*
G01X12169Y13183D02*
G01X12106Y13183D01*
G01X12080Y13192D01*
G01X12062Y13209D01*
G01X12053Y13227D01*
G01X12044Y13254D01*
G01X12044Y13299D01*
G01X12053Y13326D01*
G01X12062Y13344D01*
G01X12080Y13362D01*
G01X12106Y13371D01*
G01X12169Y13371D01*
G01X11985Y13218D02*
G01X11966Y13209D01*
G01X11939Y13183D01*
G01X11939Y13371D01*
G01X11827Y13183D02*
G01X11854Y13192D01*
G01X11872Y13218D01*
G01X11881Y13263D01*
G01X11881Y13290D01*
G01X11872Y13335D01*
G01X11854Y13362D01*
G01X11827Y13371D01*
G01X11808Y13371D01*
G01X11782Y13362D01*
G01X11764Y13335D01*
G01X11756Y13290D01*
G01X11756Y13263D01*
G01X11764Y13218D01*
G01X11782Y13192D01*
G01X11808Y13183D01*
G01X11827Y13183D01*
G01X11169Y14183D02*
G01X11169Y14367D01*
G01X11169Y14183D02*
G01X11107Y14183D01*
G01X11080Y14191D01*
G01X11062Y14208D01*
G01X11053Y14223D01*
G01X11044Y14251D01*
G01X11044Y14296D01*
G01X11053Y14322D01*
G01X11062Y14342D01*
G01X11080Y14362D01*
G01X11107Y14367D01*
G01X11169Y14367D01*
G01X10985Y14217D02*
G01X10967Y14208D01*
G01X10940Y14183D01*
G01X10940Y14367D01*
G01X10863Y14183D02*
G01X10765Y14183D01*
G01X10818Y14251D01*
G01X10791Y14251D01*
G01X10774Y14262D01*
G01X10765Y14269D01*
G01X10757Y14296D01*
G01X10757Y14316D01*
G01X10765Y14342D01*
G01X10782Y14362D01*
G01X10809Y14367D01*
G01X10836Y14367D01*
G01X10863Y14362D01*
G01X10872Y14349D01*
G01X10882Y14335D01*
G01X11169Y13183D02*
G01X11169Y13369D01*
G01X11169Y13183D02*
G01X11106Y13183D01*
G01X11080Y13190D01*
G01X11062Y13209D01*
G01X11053Y13227D01*
G01X11044Y13254D01*
G01X11044Y13298D01*
G01X11053Y13325D01*
G01X11062Y13342D01*
G01X11080Y13361D01*
G01X11106Y13369D01*
G01X11169Y13369D01*
G01X10985Y13216D02*
G01X10966Y13209D01*
G01X10939Y13183D01*
G01X10939Y13369D01*
G01X10872Y13227D02*
G01X10872Y13216D01*
G01X10862Y13200D01*
G01X10854Y13190D01*
G01X10835Y13183D01*
G01X10800Y13183D01*
G01X10782Y13190D01*
G01X10774Y13200D01*
G01X10764Y13216D01*
G01X10764Y13236D01*
G01X10774Y13254D01*
G01X10791Y13281D01*
G01X10881Y13369D01*
G01X10756Y13369D01*
G01X10169Y14183D02*
G01X10169Y14370D01*
G01X10169Y14183D02*
G01X10106Y14183D01*
G01X10079Y14191D01*
G01X10063Y14208D01*
G01X10052Y14225D01*
G01X10044Y14254D01*
G01X10044Y14299D01*
G01X10052Y14325D01*
G01X10063Y14343D01*
G01X10079Y14362D01*
G01X10106Y14370D01*
G01X10169Y14370D01*
G01X9986Y14218D02*
G01X9967Y14208D01*
G01X9940Y14183D01*
G01X9940Y14370D01*
G01X9773Y14183D02*
G01X9863Y14183D01*
G01X9871Y14262D01*
G01X9863Y14254D01*
G01X9836Y14245D01*
G01X9809Y14245D01*
G01X9781Y14254D01*
G01X9765Y14272D01*
G01X9756Y14299D01*
G01X9756Y14316D01*
G01X9765Y14343D01*
G01X9781Y14362D01*
G01X9809Y14370D01*
G01X9836Y14370D01*
G01X9863Y14362D01*
G01X9871Y14352D01*
G01X9881Y14335D01*
G01X10169Y13183D02*
G01X10169Y13371D01*
G01X10169Y13183D02*
G01X10106Y13183D01*
G01X10080Y13191D01*
G01X10062Y13208D01*
G01X10053Y13227D01*
G01X10044Y13254D01*
G01X10044Y13298D01*
G01X10053Y13325D01*
G01X10062Y13341D01*
G01X10080Y13362D01*
G01X10106Y13371D01*
G01X10169Y13371D01*
G01X9985Y13216D02*
G01X9966Y13208D01*
G01X9939Y13183D01*
G01X9939Y13371D01*
G01X9791Y13183D02*
G01X9881Y13308D01*
G01X9747Y13308D01*
G01X9791Y13183D02*
G01X9791Y13371D01*
G01X9169Y14183D02*
G01X9169Y14372D01*
G01X9169Y14183D02*
G01X9106Y14183D01*
G01X9079Y14193D01*
G01X9062Y14208D01*
G01X9053Y14228D01*
G01X9044Y14255D01*
G01X9044Y14301D01*
G01X9053Y14328D01*
G01X9062Y14345D01*
G01X9079Y14364D01*
G01X9106Y14372D01*
G01X9169Y14372D01*
G01X8985Y14220D02*
G01X8966Y14208D01*
G01X8939Y14183D01*
G01X8939Y14372D01*
G01X8756Y14183D02*
G01X8845Y14372D01*
G01X8881Y14183D02*
G01X8756Y14183D01*
G01X9169Y13183D02*
G01X9169Y13371D01*
G01X9169Y13183D02*
G01X9106Y13183D01*
G01X9080Y13192D01*
G01X9062Y13208D01*
G01X9053Y13227D01*
G01X9044Y13254D01*
G01X9044Y13298D01*
G01X9053Y13325D01*
G01X9062Y13344D01*
G01X9080Y13362D01*
G01X9106Y13371D01*
G01X9169Y13371D01*
G01X8985Y13217D02*
G01X8965Y13208D01*
G01X8938Y13183D01*
G01X8938Y13371D01*
G01X8773Y13208D02*
G01X8782Y13192D01*
G01X8808Y13183D01*
G01X8827Y13183D01*
G01X8854Y13192D01*
G01X8871Y13217D01*
G01X8881Y13262D01*
G01X8881Y13308D01*
G01X8871Y13344D01*
G01X8854Y13362D01*
G01X8827Y13371D01*
G01X8817Y13371D01*
G01X8790Y13362D01*
G01X8773Y13344D01*
G01X8763Y13317D01*
G01X8763Y13308D01*
G01X8773Y13281D01*
G01X8790Y13262D01*
G01X8817Y13254D01*
G01X8827Y13254D01*
G01X8854Y13262D01*
G01X8871Y13281D01*
G01X8881Y13308D01*
G01X8169Y14183D02*
G01X8169Y14371D01*
G01X8169Y14183D02*
G01X8106Y14183D01*
G01X8080Y14194D01*
G01X8062Y14210D01*
G01X8053Y14227D01*
G01X8044Y14254D01*
G01X8044Y14300D01*
G01X8053Y14326D01*
G01X8062Y14346D01*
G01X8080Y14363D01*
G01X8106Y14371D01*
G01X8169Y14371D01*
G01X7985Y14219D02*
G01X7967Y14210D01*
G01X7940Y14183D01*
G01X7940Y14371D01*
G01X7765Y14246D02*
G01X7774Y14273D01*
G01X7791Y14292D01*
G01X7818Y14300D01*
G01X7827Y14300D01*
G01X7854Y14292D01*
G01X7872Y14273D01*
G01X7881Y14246D01*
G01X7881Y14238D01*
G01X7872Y14210D01*
G01X7854Y14194D01*
G01X7827Y14183D01*
G01X7818Y14183D01*
G01X7791Y14194D01*
G01X7774Y14210D01*
G01X7765Y14246D01*
G01X7765Y14292D01*
G01X7774Y14335D01*
G01X7791Y14363D01*
G01X7818Y14371D01*
G01X7836Y14371D01*
G01X7863Y14363D01*
G01X7872Y14346D01*
G01X8169Y13183D02*
G01X8169Y13371D01*
G01X8169Y13183D02*
G01X8106Y13183D01*
G01X8080Y13192D01*
G01X8062Y13209D01*
G01X8054Y13227D01*
G01X8044Y13254D01*
G01X8044Y13299D01*
G01X8054Y13326D01*
G01X8062Y13344D01*
G01X8080Y13362D01*
G01X8106Y13371D01*
G01X8169Y13371D01*
G01X7985Y13218D02*
G01X7966Y13209D01*
G01X7939Y13183D01*
G01X7939Y13371D01*
G01X7835Y13183D02*
G01X7862Y13192D01*
G01X7873Y13209D01*
G01X7873Y13227D01*
G01X7862Y13245D01*
G01X7846Y13254D01*
G01X7808Y13263D01*
G01X7782Y13272D01*
G01X7764Y13290D01*
G01X7756Y13308D01*
G01X7756Y13335D01*
G01X7764Y13353D01*
G01X7775Y13362D01*
G01X7800Y13371D01*
G01X7835Y13371D01*
G01X7862Y13362D01*
G01X7873Y13353D01*
G01X7881Y13335D01*
G01X7881Y13308D01*
G01X7873Y13290D01*
G01X7854Y13272D01*
G01X7827Y13263D01*
G01X7791Y13254D01*
G01X7775Y13245D01*
G01X7764Y13227D01*
G01X7764Y13209D01*
G01X7775Y13192D01*
G01X7800Y13183D01*
G01X7835Y13183D01*
G01X7163Y13184D02*
G01X7163Y13371D01*
G01X7163Y13184D02*
G01X7100Y13184D01*
G01X7073Y13192D01*
G01X7056Y13209D01*
G01X7047Y13228D01*
G01X7038Y13255D01*
G01X7038Y13300D01*
G01X7047Y13326D01*
G01X7056Y13344D01*
G01X7073Y13363D01*
G01X7100Y13371D01*
G01X7163Y13371D01*
G01X6969Y13228D02*
G01X6969Y13219D01*
G01X6960Y13201D01*
G01X6952Y13192D01*
G01X6934Y13184D01*
G01X6897Y13184D01*
G01X6880Y13192D01*
G01X6871Y13201D01*
G01X6861Y13219D01*
G01X6861Y13236D01*
G01X6871Y13255D01*
G01X6889Y13282D01*
G01X6978Y13371D01*
G01X6852Y13371D01*
G01X6740Y13184D02*
G01X6768Y13192D01*
G01X6785Y13219D01*
G01X6793Y13263D01*
G01X6793Y13290D01*
G01X6785Y13336D01*
G01X6768Y13363D01*
G01X6740Y13371D01*
G01X6722Y13371D01*
G01X6696Y13363D01*
G01X6677Y13336D01*
G01X6668Y13290D01*
G01X6668Y13263D01*
G01X6677Y13219D01*
G01X6696Y13192D01*
G01X6722Y13184D01*
G01X6740Y13184D01*
G01X7163Y14182D02*
G01X7163Y14371D01*
G01X7163Y14182D02*
G01X7100Y14182D01*
G01X7073Y14192D01*
G01X7056Y14209D01*
G01X7047Y14226D01*
G01X7038Y14253D01*
G01X7038Y14298D01*
G01X7047Y14326D01*
G01X7056Y14344D01*
G01X7073Y14361D01*
G01X7100Y14371D01*
G01X7163Y14371D01*
G01X6969Y14226D02*
G01X6969Y14217D01*
G01X6960Y14201D01*
G01X6952Y14192D01*
G01X6934Y14182D01*
G01X6897Y14182D01*
G01X6880Y14192D01*
G01X6871Y14201D01*
G01X6861Y14217D01*
G01X6861Y14236D01*
G01X6871Y14253D01*
G01X6889Y14280D01*
G01X6978Y14371D01*
G01X6852Y14371D01*
G01X6793Y14217D02*
G01X6776Y14209D01*
G01X6750Y14182D01*
G01X6750Y14371D01*
G01X6169Y14183D02*
G01X6169Y14373D01*
G01X6169Y14183D02*
G01X6106Y14183D01*
G01X6080Y14194D01*
G01X6062Y14211D01*
G01X6053Y14229D01*
G01X6044Y14256D01*
G01X6044Y14300D01*
G01X6053Y14327D01*
G01X6062Y14346D01*
G01X6080Y14363D01*
G01X6106Y14373D01*
G01X6169Y14373D01*
G01X5976Y14229D02*
G01X5976Y14219D01*
G01X5967Y14202D01*
G01X5958Y14194D01*
G01X5940Y14183D01*
G01X5904Y14183D01*
G01X5886Y14194D01*
G01X5877Y14202D01*
G01X5868Y14219D01*
G01X5868Y14238D01*
G01X5877Y14256D01*
G01X5895Y14281D01*
G01X5985Y14373D01*
G01X5859Y14373D01*
G01X5782Y14183D02*
G01X5684Y14183D01*
G01X5738Y14256D01*
G01X5711Y14256D01*
G01X5693Y14265D01*
G01X5684Y14273D01*
G01X5675Y14300D01*
G01X5675Y14319D01*
G01X5684Y14346D01*
G01X5702Y14363D01*
G01X5729Y14373D01*
G01X5756Y14373D01*
G01X5782Y14363D01*
G01X5791Y14354D01*
G01X5800Y14336D01*
G01X6169Y13183D02*
G01X6169Y13368D01*
G01X6169Y13183D02*
G01X6106Y13183D01*
G01X6080Y13189D01*
G01X6062Y13208D01*
G01X6053Y13226D01*
G01X6044Y13253D01*
G01X6044Y13297D01*
G01X6053Y13324D01*
G01X6062Y13341D01*
G01X6080Y13362D01*
G01X6106Y13368D01*
G01X6169Y13368D01*
G01X5976Y13226D02*
G01X5976Y13216D01*
G01X5966Y13199D01*
G01X5958Y13189D01*
G01X5939Y13183D01*
G01X5904Y13183D01*
G01X5885Y13189D01*
G01X5877Y13199D01*
G01X5868Y13216D01*
G01X5868Y13235D01*
G01X5877Y13253D01*
G01X5895Y13280D01*
G01X5985Y13368D01*
G01X5858Y13368D01*
G01X5791Y13226D02*
G01X5791Y13216D01*
G01X5781Y13199D01*
G01X5774Y13189D01*
G01X5756Y13183D01*
G01X5720Y13183D01*
G01X5702Y13189D01*
G01X5693Y13199D01*
G01X5683Y13216D01*
G01X5683Y13235D01*
G01X5693Y13253D01*
G01X5710Y13280D01*
G01X5800Y13368D01*
G01X5675Y13368D01*
G01X5169Y13183D02*
G01X5169Y13369D01*
G01X5169Y13183D02*
G01X5106Y13183D01*
G01X5080Y13190D01*
G01X5063Y13209D01*
G01X5053Y13227D01*
G01X5044Y13254D01*
G01X5044Y13298D01*
G01X5053Y13325D01*
G01X5063Y13342D01*
G01X5080Y13361D01*
G01X5106Y13369D01*
G01X5169Y13369D01*
G01X4976Y13227D02*
G01X4976Y13216D01*
G01X4967Y13200D01*
G01X4958Y13190D01*
G01X4940Y13183D01*
G01X4904Y13183D01*
G01X4886Y13190D01*
G01X4877Y13200D01*
G01X4869Y13216D01*
G01X4869Y13236D01*
G01X4877Y13254D01*
G01X4896Y13281D01*
G01X4985Y13369D01*
G01X4859Y13369D01*
G01X4711Y13183D02*
G01X4800Y13308D01*
G01X4667Y13308D01*
G01X4711Y13183D02*
G01X4711Y13369D01*
G01X5169Y14183D02*
G01X5169Y14375D01*
G01X5169Y14183D02*
G01X5106Y14183D01*
G01X5080Y14196D01*
G01X5062Y14210D01*
G01X5053Y14230D01*
G01X5044Y14257D01*
G01X5044Y14302D01*
G01X5053Y14329D01*
G01X5062Y14348D01*
G01X5080Y14364D01*
G01X5106Y14375D01*
G01X5169Y14375D01*
G01X4976Y14230D02*
G01X4976Y14221D01*
G01X4967Y14204D01*
G01X4958Y14196D01*
G01X4940Y14183D01*
G01X4904Y14183D01*
G01X4886Y14196D01*
G01X4877Y14204D01*
G01X4868Y14221D01*
G01X4868Y14239D01*
G01X4877Y14257D01*
G01X4895Y14283D01*
G01X4985Y14375D01*
G01X4859Y14375D01*
G01X4693Y14183D02*
G01X4782Y14183D01*
G01X4791Y14267D01*
G01X4782Y14257D01*
G01X4756Y14248D01*
G01X4729Y14248D01*
G01X4702Y14257D01*
G01X4684Y14275D01*
G01X4675Y14302D01*
G01X4675Y14321D01*
G01X4684Y14348D01*
G01X4702Y14364D01*
G01X4729Y14375D01*
G01X4756Y14375D01*
G01X4782Y14364D01*
G01X4791Y14355D01*
G01X4800Y14335D01*
G01X4169Y13183D02*
G01X4169Y13371D01*
G01X4169Y13183D02*
G01X4106Y13183D01*
G01X4080Y13192D01*
G01X4062Y13209D01*
G01X4053Y13227D01*
G01X4044Y13254D01*
G01X4044Y13299D01*
G01X4053Y13326D01*
G01X4062Y13344D01*
G01X4080Y13362D01*
G01X4106Y13371D01*
G01X4169Y13371D01*
G01X3976Y13227D02*
G01X3976Y13218D01*
G01X3967Y13201D01*
G01X3958Y13192D01*
G01X3940Y13183D01*
G01X3904Y13183D01*
G01X3886Y13192D01*
G01X3877Y13201D01*
G01X3868Y13218D01*
G01X3868Y13236D01*
G01X3877Y13254D01*
G01X3895Y13281D01*
G01X3985Y13371D01*
G01X3859Y13371D01*
G01X3693Y13209D02*
G01X3702Y13192D01*
G01X3729Y13183D01*
G01X3747Y13183D01*
G01X3774Y13192D01*
G01X3791Y13218D01*
G01X3800Y13263D01*
G01X3800Y13308D01*
G01X3791Y13344D01*
G01X3774Y13362D01*
G01X3747Y13371D01*
G01X3738Y13371D01*
G01X3711Y13362D01*
G01X3693Y13344D01*
G01X3684Y13317D01*
G01X3684Y13308D01*
G01X3693Y13281D01*
G01X3711Y13263D01*
G01X3738Y13254D01*
G01X3747Y13254D01*
G01X3774Y13263D01*
G01X3791Y13281D01*
G01X3800Y13308D01*
G01X4169Y14183D02*
G01X4169Y14370D01*
G01X4169Y14183D02*
G01X4106Y14183D01*
G01X4079Y14191D01*
G01X4063Y14208D01*
G01X4052Y14227D01*
G01X4044Y14254D01*
G01X4044Y14299D01*
G01X4052Y14325D01*
G01X4063Y14343D01*
G01X4079Y14362D01*
G01X4106Y14370D01*
G01X4169Y14370D01*
G01X3977Y14227D02*
G01X3977Y14218D01*
G01X3968Y14200D01*
G01X3959Y14191D01*
G01X3940Y14183D01*
G01X3904Y14183D01*
G01X3886Y14191D01*
G01X3877Y14200D01*
G01X3869Y14218D01*
G01X3869Y14235D01*
G01X3877Y14254D01*
G01X3896Y14281D01*
G01X3986Y14370D01*
G01X3859Y14370D01*
G01X3675Y14183D02*
G01X3765Y14370D01*
G01X3800Y14183D02*
G01X3675Y14183D01*
G01X3169Y14183D02*
G01X3169Y14370D01*
G01X3169Y14183D02*
G01X3106Y14183D01*
G01X3080Y14191D01*
G01X3062Y14208D01*
G01X3053Y14227D01*
G01X3044Y14254D01*
G01X3044Y14299D01*
G01X3053Y14327D01*
G01X3062Y14343D01*
G01X3080Y14362D01*
G01X3106Y14370D01*
G01X3169Y14370D01*
G01X2976Y14227D02*
G01X2976Y14218D01*
G01X2967Y14202D01*
G01X2958Y14191D01*
G01X2940Y14183D01*
G01X2904Y14183D01*
G01X2886Y14191D01*
G01X2877Y14202D01*
G01X2868Y14218D01*
G01X2868Y14235D01*
G01X2877Y14254D01*
G01X2895Y14281D01*
G01X2985Y14370D01*
G01X2859Y14370D01*
G01X2684Y14245D02*
G01X2693Y14272D01*
G01X2711Y14289D01*
G01X2738Y14299D01*
G01X2747Y14299D01*
G01X2774Y14289D01*
G01X2791Y14272D01*
G01X2800Y14245D01*
G01X2800Y14235D01*
G01X2791Y14208D01*
G01X2774Y14191D01*
G01X2747Y14183D01*
G01X2738Y14183D01*
G01X2711Y14191D01*
G01X2693Y14208D01*
G01X2684Y14245D01*
G01X2684Y14289D01*
G01X2693Y14335D01*
G01X2711Y14362D01*
G01X2738Y14370D01*
G01X2756Y14370D01*
G01X2782Y14362D01*
G01X2791Y14343D01*
G01X3169Y13183D02*
G01X3169Y13373D01*
G01X3169Y13183D02*
G01X3107Y13183D01*
G01X3080Y13192D01*
G01X3063Y13209D01*
G01X3053Y13228D01*
G01X3044Y13255D01*
G01X3044Y13300D01*
G01X3053Y13327D01*
G01X3063Y13344D01*
G01X3080Y13361D01*
G01X3107Y13373D01*
G01X3169Y13373D01*
G01X2976Y13228D02*
G01X2976Y13217D01*
G01X2967Y13202D01*
G01X2959Y13192D01*
G01X2940Y13183D01*
G01X2905Y13183D01*
G01X2886Y13192D01*
G01X2878Y13202D01*
G01X2869Y13217D01*
G01X2869Y13236D01*
G01X2878Y13255D01*
G01X2895Y13282D01*
G01X2986Y13373D01*
G01X2859Y13373D01*
G01X2757Y13183D02*
G01X2782Y13192D01*
G01X2792Y13209D01*
G01X2792Y13228D01*
G01X2782Y13244D01*
G01X2765Y13255D01*
G01X2730Y13263D01*
G01X2703Y13273D01*
G01X2684Y13290D01*
G01X2675Y13308D01*
G01X2675Y13334D01*
G01X2684Y13353D01*
G01X2694Y13361D01*
G01X2720Y13373D01*
G01X2757Y13373D01*
G01X2782Y13361D01*
G01X2792Y13353D01*
G01X2800Y13334D01*
G01X2800Y13308D01*
G01X2792Y13290D01*
G01X2774Y13273D01*
G01X2747Y13263D01*
G01X2711Y13255D01*
G01X2694Y13244D01*
G01X2684Y13228D01*
G01X2684Y13209D01*
G01X2694Y13192D01*
G01X2720Y13183D01*
G01X2757Y13183D01*
G01X2169Y13183D02*
G01X2169Y13368D01*
G01X2169Y13183D02*
G01X2105Y13183D01*
G01X2080Y13189D01*
G01X2064Y13208D01*
G01X2053Y13227D01*
G01X2044Y13254D01*
G01X2044Y13296D01*
G01X2053Y13323D01*
G01X2064Y13341D01*
G01X2080Y13361D01*
G01X2105Y13368D01*
G01X2169Y13368D01*
G01X1968Y13183D02*
G01X1869Y13183D01*
G01X1922Y13254D01*
G01X1895Y13254D01*
G01X1878Y13261D01*
G01X1869Y13271D01*
G01X1861Y13296D01*
G01X1861Y13314D01*
G01X1869Y13341D01*
G01X1888Y13361D01*
G01X1915Y13368D01*
G01X1941Y13368D01*
G01X1968Y13361D01*
G01X1976Y13352D01*
G01X1987Y13334D01*
G01X1747Y13183D02*
G01X1774Y13189D01*
G01X1796Y13216D01*
G01X1804Y13261D01*
G01X1804Y13288D01*
G01X1796Y13334D01*
G01X1774Y13361D01*
G01X1747Y13368D01*
G01X1731Y13368D01*
G01X1705Y13361D01*
G01X1688Y13334D01*
G01X1680Y13288D01*
G01X1680Y13261D01*
G01X1688Y13216D01*
G01X1705Y13189D01*
G01X1731Y13183D01*
G01X1747Y13183D01*
G01X2169Y14183D02*
G01X2169Y14371D01*
G01X2169Y14183D02*
G01X2107Y14183D01*
G01X2082Y14193D01*
G01X2064Y14208D01*
G01X2055Y14227D01*
G01X2045Y14254D01*
G01X2045Y14298D01*
G01X2055Y14325D01*
G01X2064Y14345D01*
G01X2082Y14364D01*
G01X2107Y14371D01*
G01X2169Y14371D01*
G01X1970Y14183D02*
G01X1872Y14183D01*
G01X1923Y14254D01*
G01X1898Y14254D01*
G01X1880Y14264D01*
G01X1872Y14271D01*
G01X1861Y14298D01*
G01X1861Y14318D01*
G01X1872Y14345D01*
G01X1890Y14364D01*
G01X1915Y14371D01*
G01X1942Y14371D01*
G01X1970Y14364D01*
G01X1977Y14352D01*
G01X1989Y14335D01*
G01X1803Y14218D02*
G01X1785Y14208D01*
G01X1760Y14183D01*
G01X1760Y14371D01*
G01X17175Y1135D02*
G01X17247Y1323D01*
G01X17175Y1135D02*
G01X17104Y1323D01*
G01X17220Y1260D02*
G01X17131Y1260D01*
G01X16991Y1135D02*
G01X17018Y1144D01*
G01X17035Y1170D01*
G01X17045Y1215D01*
G01X17045Y1242D01*
G01X17035Y1287D01*
G01X17018Y1314D01*
G01X16991Y1323D01*
G01X16973Y1323D01*
G01X16945Y1314D01*
G01X16928Y1287D01*
G01X16920Y1242D01*
G01X16920Y1215D01*
G01X16928Y1170D01*
G01X16945Y1144D01*
G01X16973Y1135D01*
G01X16991Y1135D01*
G01X16177Y2135D02*
G01X16248Y2323D01*
G01X16177Y2135D02*
G01X16105Y2323D01*
G01X16221Y2260D02*
G01X16132Y2260D01*
G01X16028Y2135D02*
G01X15929Y2135D01*
G01X15983Y2206D01*
G01X15956Y2206D01*
G01X15938Y2215D01*
G01X15929Y2224D01*
G01X15921Y2251D01*
G01X15921Y2269D01*
G01X15929Y2296D01*
G01X15948Y2313D01*
G01X15975Y2323D01*
G01X16002Y2323D01*
G01X16028Y2313D01*
G01X16037Y2305D01*
G01X16046Y2287D01*
G01X15176Y2135D02*
G01X15248Y2324D01*
G01X15176Y2135D02*
G01X15105Y2324D01*
G01X15221Y2260D02*
G01X15132Y2260D01*
G01X14938Y2135D02*
G01X15028Y2135D01*
G01X15038Y2215D01*
G01X15028Y2206D01*
G01X15001Y2197D01*
G01X14974Y2197D01*
G01X14947Y2206D01*
G01X14929Y2224D01*
G01X14921Y2251D01*
G01X14921Y2270D01*
G01X14929Y2297D01*
G01X14947Y2315D01*
G01X14974Y2324D01*
G01X15001Y2324D01*
G01X15028Y2315D01*
G01X15038Y2304D01*
G01X15046Y2287D01*
G01X14175Y2135D02*
G01X14248Y2323D01*
G01X14175Y2135D02*
G01X14104Y2323D01*
G01X14223Y2260D02*
G01X14130Y2260D01*
G01X13923Y2135D02*
G01X14009Y2323D01*
G01X14048Y2135D02*
G01X13923Y2135D01*
G01X13174Y2135D02*
G01X13247Y2323D01*
G01X13174Y2135D02*
G01X13104Y2323D01*
G01X13220Y2260D02*
G01X13132Y2260D01*
G01X12928Y2196D02*
G01X12937Y2223D01*
G01X12955Y2242D01*
G01X12982Y2250D01*
G01X12991Y2250D01*
G01X13018Y2242D01*
G01X13036Y2223D01*
G01X13045Y2196D01*
G01X13045Y2188D01*
G01X13036Y2161D01*
G01X13018Y2144D01*
G01X12991Y2135D01*
G01X12982Y2135D01*
G01X12955Y2144D01*
G01X12937Y2161D01*
G01X12928Y2196D01*
G01X12928Y2242D01*
G01X12937Y2286D01*
G01X12955Y2313D01*
G01X12982Y2323D01*
G01X12999Y2323D01*
G01X13027Y2313D01*
G01X13036Y2296D01*
G01X12176Y1135D02*
G01X12248Y1323D01*
G01X12176Y1135D02*
G01X12105Y1323D01*
G01X12221Y1260D02*
G01X12131Y1260D01*
G01X12046Y1170D02*
G01X12028Y1160D01*
G01X12001Y1135D01*
G01X12001Y1323D01*
G01X11887Y1135D02*
G01X11914Y1143D01*
G01X11933Y1170D01*
G01X11941Y1214D01*
G01X11941Y1241D01*
G01X11933Y1287D01*
G01X11914Y1314D01*
G01X11887Y1323D01*
G01X11870Y1323D01*
G01X11843Y1314D01*
G01X11826Y1287D01*
G01X11816Y1241D01*
G01X11816Y1214D01*
G01X11826Y1170D01*
G01X11843Y1143D01*
G01X11870Y1135D01*
G01X11887Y1135D01*
G01X12177Y2135D02*
G01X12248Y2323D01*
G01X12177Y2135D02*
G01X12105Y2323D01*
G01X12221Y2260D02*
G01X12132Y2260D01*
G01X12046Y2169D02*
G01X12028Y2160D01*
G01X12002Y2135D01*
G01X12002Y2323D01*
G01X11942Y2169D02*
G01X11925Y2160D01*
G01X11898Y2135D01*
G01X11898Y2323D01*
G01X11176Y2135D02*
G01X11248Y2323D01*
G01X11176Y2135D02*
G01X11105Y2323D01*
G01X11221Y2260D02*
G01X11132Y2260D01*
G01X11046Y2170D02*
G01X11028Y2161D01*
G01X11001Y2135D01*
G01X11001Y2323D01*
G01X10924Y2135D02*
G01X10826Y2135D01*
G01X10879Y2206D01*
G01X10853Y2206D01*
G01X10835Y2215D01*
G01X10826Y2224D01*
G01X10817Y2251D01*
G01X10817Y2269D01*
G01X10826Y2296D01*
G01X10844Y2314D01*
G01X10870Y2323D01*
G01X10897Y2323D01*
G01X10924Y2314D01*
G01X10933Y2305D01*
G01X10942Y2287D01*
G01X10176Y2135D02*
G01X10248Y2324D01*
G01X10176Y2135D02*
G01X10105Y2324D01*
G01X10221Y2260D02*
G01X10132Y2260D01*
G01X10046Y2171D02*
G01X10028Y2162D01*
G01X10001Y2135D01*
G01X10001Y2324D01*
G01X9835Y2135D02*
G01X9924Y2135D01*
G01X9933Y2216D01*
G01X9924Y2206D01*
G01X9897Y2198D01*
G01X9870Y2198D01*
G01X9844Y2206D01*
G01X9826Y2225D01*
G01X9817Y2252D01*
G01X9817Y2270D01*
G01X9826Y2297D01*
G01X9844Y2315D01*
G01X9870Y2324D01*
G01X9897Y2324D01*
G01X9924Y2315D01*
G01X9933Y2306D01*
G01X9942Y2287D01*
G01X9248Y2135D02*
G01X9248Y2323D01*
G01X9248Y2135D02*
G01X9185Y2135D01*
G01X9159Y2143D01*
G01X9142Y2161D01*
G01X9132Y2179D01*
G01X9123Y2206D01*
G01X9123Y2251D01*
G01X9132Y2278D01*
G01X9142Y2295D01*
G01X9159Y2314D01*
G01X9185Y2323D01*
G01X9248Y2323D01*
G01X9046Y2135D02*
G01X8948Y2135D01*
G01X9001Y2206D01*
G01X8975Y2206D01*
G01X8956Y2214D01*
G01X8948Y2224D01*
G01X8938Y2251D01*
G01X8938Y2268D01*
G01X8948Y2295D01*
G01X8965Y2314D01*
G01X8992Y2323D01*
G01X9019Y2323D01*
G01X9046Y2314D01*
G01X9055Y2305D01*
G01X9064Y2287D01*
G01X8861Y2135D02*
G01X8763Y2135D01*
G01X8817Y2206D01*
G01X8790Y2206D01*
G01X8773Y2214D01*
G01X8763Y2224D01*
G01X8754Y2251D01*
G01X8754Y2268D01*
G01X8763Y2295D01*
G01X8781Y2314D01*
G01X8808Y2323D01*
G01X8835Y2323D01*
G01X8861Y2314D01*
G01X8871Y2305D01*
G01X8879Y2287D01*
G01X6248Y1135D02*
G01X6248Y1322D01*
G01X6248Y1135D02*
G01X6184Y1135D01*
G01X6159Y1143D01*
G01X6142Y1160D01*
G01X6132Y1176D01*
G01X6123Y1203D01*
G01X6123Y1249D01*
G01X6132Y1274D01*
G01X6142Y1295D01*
G01X6159Y1314D01*
G01X6184Y1322D01*
G01X6248Y1322D01*
G01X6047Y1135D02*
G01X5948Y1135D01*
G01X6001Y1203D01*
G01X5974Y1203D01*
G01X5955Y1214D01*
G01X5948Y1222D01*
G01X5938Y1249D01*
G01X5938Y1268D01*
G01X5948Y1295D01*
G01X5965Y1314D01*
G01X5992Y1322D01*
G01X6019Y1322D01*
G01X6047Y1314D01*
G01X6055Y1301D01*
G01X6065Y1287D01*
G01X5834Y1135D02*
G01X5859Y1143D01*
G01X5872Y1160D01*
G01X5872Y1176D01*
G01X5859Y1197D01*
G01X5844Y1203D01*
G01X5807Y1214D01*
G01X5780Y1222D01*
G01X5763Y1241D01*
G01X5753Y1260D01*
G01X5753Y1287D01*
G01X5763Y1301D01*
G01X5773Y1314D01*
G01X5799Y1322D01*
G01X5834Y1322D01*
G01X5859Y1314D01*
G01X5872Y1301D01*
G01X5878Y1287D01*
G01X5878Y1260D01*
G01X5872Y1241D01*
G01X5853Y1222D01*
G01X5826Y1214D01*
G01X5790Y1203D01*
G01X5773Y1197D01*
G01X5763Y1176D01*
G01X5763Y1160D01*
G01X5773Y1143D01*
G01X5799Y1135D01*
G01X5834Y1135D01*
G01X6248Y2135D02*
G01X6248Y2324D01*
G01X6248Y2135D02*
G01X6184Y2135D01*
G01X6157Y2145D01*
G01X6142Y2162D01*
G01X6130Y2181D01*
G01X6123Y2206D01*
G01X6123Y2252D01*
G01X6130Y2279D01*
G01X6142Y2297D01*
G01X6157Y2314D01*
G01X6184Y2324D01*
G01X6248Y2324D01*
G01X6046Y2135D02*
G01X5948Y2135D01*
G01X5999Y2206D01*
G01X5974Y2206D01*
G01X5953Y2216D01*
G01X5948Y2224D01*
G01X5938Y2252D01*
G01X5938Y2270D01*
G01X5948Y2297D01*
G01X5965Y2314D01*
G01X5992Y2324D01*
G01X6019Y2324D01*
G01X6046Y2314D01*
G01X6053Y2306D01*
G01X6065Y2287D01*
G01X5763Y2197D02*
G01X5773Y2224D01*
G01X5790Y2243D01*
G01X5817Y2252D01*
G01X5824Y2252D01*
G01X5851Y2243D01*
G01X5871Y2224D01*
G01X5876Y2197D01*
G01X5876Y2189D01*
G01X5871Y2162D01*
G01X5851Y2145D01*
G01X5824Y2135D01*
G01X5817Y2135D01*
G01X5790Y2145D01*
G01X5773Y2162D01*
G01X5763Y2197D01*
G01X5763Y2243D01*
G01X5773Y2287D01*
G01X5790Y2314D01*
G01X5817Y2324D01*
G01X5834Y2324D01*
G01X5859Y2314D01*
G01X5871Y2297D01*
G01X4248Y2135D02*
G01X4248Y2323D01*
G01X4248Y2135D02*
G01X4188Y2135D01*
G01X4161Y2143D01*
G01X4142Y2160D01*
G01X4132Y2179D01*
G01X4123Y2206D01*
G01X4123Y2252D01*
G01X4132Y2279D01*
G01X4142Y2295D01*
G01X4161Y2314D01*
G01X4188Y2323D01*
G01X4248Y2323D01*
G01X3973Y2135D02*
G01X4065Y2260D01*
G01X3930Y2260D01*
G01X3973Y2135D02*
G01X3973Y2323D01*
G01X3853Y2135D02*
G01X3755Y2135D01*
G01X3811Y2206D01*
G01X3782Y2206D01*
G01X3765Y2214D01*
G01X3755Y2225D01*
G01X3746Y2252D01*
G01X3746Y2268D01*
G01X3755Y2295D01*
G01X3773Y2314D01*
G01X3798Y2323D01*
G01X3825Y2323D01*
G01X3853Y2314D01*
G01X3863Y2306D01*
G01X3871Y2287D01*
G01X5248Y2135D02*
G01X5248Y2324D01*
G01X5248Y2135D02*
G01X5184Y2135D01*
G01X5159Y2145D01*
G01X5140Y2162D01*
G01X5131Y2180D01*
G01X5123Y2207D01*
G01X5123Y2252D01*
G01X5131Y2279D01*
G01X5140Y2297D01*
G01X5159Y2314D01*
G01X5184Y2324D01*
G01X5248Y2324D01*
G01X4973Y2135D02*
G01X5063Y2260D01*
G01X4929Y2260D01*
G01X4973Y2135D02*
G01X4973Y2324D01*
G01X4869Y2171D02*
G01X4852Y2162D01*
G01X4825Y2135D01*
G01X4825Y2324D01*
G01X16176Y1135D02*
G01X16248Y1323D01*
G01X16176Y1135D02*
G01X16105Y1323D01*
G01X16221Y1260D02*
G01X16132Y1260D01*
G01X16037Y1179D02*
G01X16037Y1170D01*
G01X16028Y1153D01*
G01X16019Y1144D01*
G01X16001Y1135D01*
G01X15965Y1135D01*
G01X15947Y1144D01*
G01X15938Y1153D01*
G01X15929Y1170D01*
G01X15929Y1189D01*
G01X15938Y1206D01*
G01X15956Y1233D01*
G01X16046Y1323D01*
G01X15921Y1323D01*
G01X15176Y1135D02*
G01X15248Y1324D01*
G01X15176Y1135D02*
G01X15105Y1324D01*
G01X15221Y1260D02*
G01X15132Y1260D01*
G01X14956Y1135D02*
G01X15046Y1260D01*
G01X14912Y1260D01*
G01X14956Y1135D02*
G01X14956Y1324D01*
G01X14175Y1135D02*
G01X14248Y1324D01*
G01X14175Y1135D02*
G01X14104Y1324D01*
G01X14221Y1260D02*
G01X14131Y1260D01*
G01X13937Y1161D02*
G01X13946Y1144D01*
G01X13973Y1135D01*
G01X13993Y1135D01*
G01X14020Y1144D01*
G01X14037Y1169D01*
G01X14046Y1215D01*
G01X14046Y1260D01*
G01X14037Y1297D01*
G01X14020Y1314D01*
G01X13993Y1324D01*
G01X13982Y1324D01*
G01X13955Y1314D01*
G01X13937Y1297D01*
G01X13928Y1269D01*
G01X13928Y1260D01*
G01X13937Y1234D01*
G01X13955Y1215D01*
G01X13982Y1207D01*
G01X13993Y1207D01*
G01X14020Y1215D01*
G01X14037Y1234D01*
G01X14046Y1260D01*
G01X13175Y1135D02*
G01X13248Y1324D01*
G01X13175Y1135D02*
G01X13104Y1324D01*
G01X13221Y1260D02*
G01X13131Y1260D01*
G01X13000Y1135D02*
G01X13027Y1145D01*
G01X13036Y1162D01*
G01X13036Y1180D01*
G01X13027Y1198D01*
G01X13009Y1206D01*
G01X12973Y1216D01*
G01X12946Y1225D01*
G01X12929Y1243D01*
G01X12921Y1260D01*
G01X12921Y1287D01*
G01X12929Y1306D01*
G01X12936Y1314D01*
G01X12963Y1324D01*
G01X13000Y1324D01*
G01X13027Y1314D01*
G01X13036Y1306D01*
G01X13046Y1287D01*
G01X13046Y1260D01*
G01X13036Y1243D01*
G01X13017Y1225D01*
G01X12990Y1216D01*
G01X12955Y1206D01*
G01X12936Y1198D01*
G01X12929Y1180D01*
G01X12929Y1162D01*
G01X12936Y1145D01*
G01X12963Y1135D01*
G01X13000Y1135D01*
G01X11176Y1135D02*
G01X11248Y1324D01*
G01X11176Y1135D02*
G01X11105Y1324D01*
G01X11221Y1260D02*
G01X11132Y1260D01*
G01X11046Y1171D02*
G01X11028Y1160D01*
G01X11001Y1135D01*
G01X11001Y1324D01*
G01X10933Y1179D02*
G01X10933Y1171D01*
G01X10924Y1154D01*
G01X10915Y1145D01*
G01X10897Y1135D01*
G01X10861Y1135D01*
G01X10844Y1145D01*
G01X10835Y1154D01*
G01X10826Y1171D01*
G01X10826Y1187D01*
G01X10835Y1206D01*
G01X10853Y1233D01*
G01X10942Y1324D01*
G01X10817Y1324D01*
G01X10176Y1135D02*
G01X10248Y1323D01*
G01X10176Y1135D02*
G01X10105Y1323D01*
G01X10221Y1260D02*
G01X10132Y1260D01*
G01X10046Y1170D02*
G01X10028Y1161D01*
G01X10001Y1135D01*
G01X10001Y1323D01*
G01X9853Y1135D02*
G01X9942Y1260D01*
G01X9808Y1260D01*
G01X9853Y1135D02*
G01X9853Y1323D01*
G01X9248Y1135D02*
G01X9248Y1323D01*
G01X9248Y1135D02*
G01X9185Y1135D01*
G01X9159Y1144D01*
G01X9141Y1161D01*
G01X9132Y1179D01*
G01X9123Y1206D01*
G01X9123Y1251D01*
G01X9132Y1278D01*
G01X9141Y1296D01*
G01X9159Y1313D01*
G01X9185Y1323D01*
G01X9248Y1323D01*
G01X9046Y1135D02*
G01X8947Y1135D01*
G01X9001Y1206D01*
G01X8974Y1206D01*
G01X8956Y1215D01*
G01X8947Y1224D01*
G01X8938Y1251D01*
G01X8938Y1269D01*
G01X8947Y1296D01*
G01X8965Y1313D01*
G01X8992Y1323D01*
G01X9019Y1323D01*
G01X9046Y1313D01*
G01X9055Y1305D01*
G01X9064Y1286D01*
G01X8870Y1179D02*
G01X8870Y1169D01*
G01X8861Y1153D01*
G01X8853Y1144D01*
G01X8835Y1135D01*
G01X8799Y1135D01*
G01X8781Y1144D01*
G01X8772Y1153D01*
G01X8763Y1169D01*
G01X8763Y1188D01*
G01X8772Y1206D01*
G01X8790Y1233D01*
G01X8879Y1323D01*
G01X8754Y1323D01*
G01X5248Y1135D02*
G01X5248Y1323D01*
G01X5248Y1135D02*
G01X5187Y1135D01*
G01X5159Y1144D01*
G01X5142Y1162D01*
G01X5132Y1181D01*
G01X5123Y1208D01*
G01X5123Y1252D01*
G01X5132Y1279D01*
G01X5142Y1296D01*
G01X5159Y1313D01*
G01X5187Y1323D01*
G01X5248Y1323D01*
G01X4975Y1135D02*
G01X5065Y1260D01*
G01X4930Y1260D01*
G01X4975Y1135D02*
G01X4975Y1323D01*
G01X4817Y1135D02*
G01X4844Y1144D01*
G01X4862Y1169D01*
G01X4871Y1215D01*
G01X4871Y1242D01*
G01X4862Y1287D01*
G01X4844Y1313D01*
G01X4817Y1323D01*
G01X4800Y1323D01*
G01X4773Y1313D01*
G01X4755Y1287D01*
G01X4746Y1242D01*
G01X4746Y1215D01*
G01X4755Y1169D01*
G01X4773Y1144D01*
G01X4800Y1135D01*
G01X4817Y1135D01*
G01X4248Y1135D02*
G01X4248Y1322D01*
G01X4248Y1135D02*
G01X4185Y1135D01*
G01X4158Y1143D01*
G01X4142Y1160D01*
G01X4131Y1178D01*
G01X4123Y1205D01*
G01X4123Y1251D01*
G01X4131Y1276D01*
G01X4142Y1295D01*
G01X4158Y1312D01*
G01X4185Y1322D01*
G01X4248Y1322D01*
G01X3973Y1135D02*
G01X4065Y1260D01*
G01X3927Y1260D01*
G01X3973Y1135D02*
G01X3973Y1322D01*
G01X3860Y1178D02*
G01X3860Y1168D01*
G01X3852Y1151D01*
G01X3845Y1143D01*
G01X3825Y1135D01*
G01X3792Y1135D01*
G01X3772Y1143D01*
G01X3765Y1151D01*
G01X3752Y1168D01*
G01X3752Y1187D01*
G01X3765Y1205D01*
G01X3779Y1233D01*
G01X3870Y1322D01*
G01X3745Y1322D01*
G01X7248Y1135D02*
G01X7248Y1323D01*
G01X7248Y1135D02*
G01X7185Y1135D01*
G01X7158Y1143D01*
G01X7141Y1160D01*
G01X7131Y1178D01*
G01X7123Y1205D01*
G01X7123Y1251D01*
G01X7131Y1278D01*
G01X7141Y1296D01*
G01X7158Y1314D01*
G01X7185Y1323D01*
G01X7248Y1323D01*
G01X7046Y1135D02*
G01X6947Y1135D01*
G01X7001Y1205D01*
G01X6974Y1205D01*
G01X6956Y1214D01*
G01X6947Y1224D01*
G01X6937Y1251D01*
G01X6937Y1268D01*
G01X6947Y1296D01*
G01X6964Y1314D01*
G01X6991Y1323D01*
G01X7019Y1323D01*
G01X7046Y1314D01*
G01X7054Y1303D01*
G01X7064Y1287D01*
G01X6772Y1160D02*
G01X6781Y1143D01*
G01X6808Y1135D01*
G01X6826Y1135D01*
G01X6853Y1143D01*
G01X6870Y1170D01*
G01X6879Y1214D01*
G01X6879Y1260D01*
G01X6870Y1296D01*
G01X6853Y1314D01*
G01X6826Y1323D01*
G01X6816Y1323D01*
G01X6789Y1314D01*
G01X6772Y1296D01*
G01X6762Y1268D01*
G01X6762Y1260D01*
G01X6772Y1231D01*
G01X6789Y1214D01*
G01X6816Y1205D01*
G01X6826Y1205D01*
G01X6853Y1214D01*
G01X6870Y1231D01*
G01X6879Y1260D01*
G01X7248Y2135D02*
G01X7248Y2322D01*
G01X7248Y2135D02*
G01X7182Y2135D01*
G01X7157Y2143D01*
G01X7138Y2160D01*
G01X7130Y2179D01*
G01X7123Y2206D01*
G01X7123Y2250D01*
G01X7130Y2277D01*
G01X7138Y2295D01*
G01X7157Y2314D01*
G01X7182Y2322D01*
G01X7248Y2322D01*
G01X7044Y2135D02*
G01X6944Y2135D01*
G01X7000Y2206D01*
G01X6973Y2206D01*
G01X6955Y2214D01*
G01X6944Y2222D01*
G01X6937Y2250D01*
G01X6937Y2268D01*
G01X6944Y2295D01*
G01X6963Y2314D01*
G01X6990Y2322D01*
G01X7017Y2322D01*
G01X7044Y2314D01*
G01X7055Y2304D01*
G01X7062Y2287D01*
G01X6755Y2135D02*
G01X6842Y2322D01*
G01X6880Y2135D02*
G01X6755Y2135D01*
G01X8248Y1135D02*
G01X8248Y1323D01*
G01X8248Y1135D02*
G01X8187Y1135D01*
G01X8160Y1144D01*
G01X8142Y1161D01*
G01X8135Y1179D01*
G01X8123Y1206D01*
G01X8123Y1251D01*
G01X8135Y1278D01*
G01X8142Y1296D01*
G01X8160Y1314D01*
G01X8187Y1323D01*
G01X8248Y1323D01*
G01X8044Y1135D02*
G01X7948Y1135D01*
G01X8004Y1206D01*
G01X7975Y1206D01*
G01X7958Y1215D01*
G01X7948Y1224D01*
G01X7938Y1251D01*
G01X7938Y1269D01*
G01X7948Y1296D01*
G01X7965Y1314D01*
G01X7992Y1323D01*
G01X8019Y1323D01*
G01X8044Y1314D01*
G01X8058Y1305D01*
G01X8065Y1287D01*
G01X7790Y1135D02*
G01X7881Y1260D01*
G01X7744Y1260D01*
G01X7790Y1135D02*
G01X7790Y1323D01*
G01X8248Y2135D02*
G01X8248Y2322D01*
G01X8248Y2135D02*
G01X8185Y2135D01*
G01X8158Y2143D01*
G01X8141Y2161D01*
G01X8131Y2180D01*
G01X8123Y2207D01*
G01X8123Y2251D01*
G01X8131Y2278D01*
G01X8141Y2295D01*
G01X8158Y2314D01*
G01X8185Y2322D01*
G01X8248Y2322D01*
G01X8046Y2135D02*
G01X7948Y2135D01*
G01X8001Y2207D01*
G01X7975Y2207D01*
G01X7956Y2214D01*
G01X7948Y2224D01*
G01X7937Y2251D01*
G01X7937Y2268D01*
G01X7948Y2295D01*
G01X7964Y2314D01*
G01X7991Y2322D01*
G01X8018Y2322D01*
G01X8046Y2314D01*
G01X8055Y2305D01*
G01X8064Y2287D01*
G01X7773Y2135D02*
G01X7860Y2135D01*
G01X7871Y2214D01*
G01X7860Y2207D01*
G01X7835Y2197D01*
G01X7808Y2197D01*
G01X7781Y2207D01*
G01X7762Y2224D01*
G01X7753Y2251D01*
G01X7753Y2268D01*
G01X7762Y2295D01*
G01X7781Y2314D01*
G01X7808Y2322D01*
G01X7835Y2322D01*
G01X7860Y2314D01*
G01X7871Y2305D01*
G01X7878Y2287D01*
G01X3248Y1135D02*
G01X3248Y1322D01*
G01X3248Y1135D02*
G01X3183Y1135D01*
G01X3158Y1143D01*
G01X3140Y1160D01*
G01X3131Y1178D01*
G01X3123Y1205D01*
G01X3123Y1249D01*
G01X3131Y1276D01*
G01X3140Y1295D01*
G01X3158Y1312D01*
G01X3183Y1322D01*
G01X3248Y1322D01*
G01X2975Y1135D02*
G01X3063Y1260D01*
G01X2929Y1260D01*
G01X2975Y1135D02*
G01X2975Y1322D01*
G01X2781Y1135D02*
G01X2871Y1260D01*
G01X2736Y1260D01*
G01X2781Y1135D02*
G01X2781Y1322D01*
G01X3248Y2135D02*
G01X3248Y2322D01*
G01X3248Y2135D02*
G01X3189Y2135D01*
G01X3162Y2143D01*
G01X3142Y2161D01*
G01X3133Y2179D01*
G01X3123Y2206D01*
G01X3123Y2251D01*
G01X3133Y2278D01*
G01X3142Y2295D01*
G01X3162Y2314D01*
G01X3189Y2322D01*
G01X3248Y2322D01*
G01X2975Y2135D02*
G01X3066Y2260D01*
G01X2931Y2260D01*
G01X2975Y2135D02*
G01X2975Y2322D01*
G01X2766Y2135D02*
G01X2854Y2135D01*
G01X2864Y2214D01*
G01X2854Y2206D01*
G01X2827Y2197D01*
G01X2800Y2197D01*
G01X2773Y2206D01*
G01X2756Y2224D01*
G01X2746Y2251D01*
G01X2746Y2268D01*
G01X2756Y2295D01*
G01X2773Y2314D01*
G01X2800Y2322D01*
G01X2827Y2322D01*
G01X2854Y2314D01*
G01X2864Y2305D01*
G01X2871Y2287D01*
G01X2248Y1135D02*
G01X2248Y1325D01*
G01X2248Y1135D02*
G01X2184Y1135D01*
G01X2157Y1146D01*
G01X2140Y1163D01*
G01X2130Y1181D01*
G01X2123Y1206D01*
G01X2123Y1252D01*
G01X2130Y1279D01*
G01X2140Y1298D01*
G01X2157Y1315D01*
G01X2184Y1325D01*
G01X2248Y1325D01*
G01X1973Y1135D02*
G01X2063Y1260D01*
G01X1930Y1260D01*
G01X1973Y1135D02*
G01X1973Y1325D01*
G01X1767Y1163D02*
G01X1776Y1146D01*
G01X1801Y1135D01*
G01X1818Y1135D01*
G01X1845Y1146D01*
G01X1860Y1171D01*
G01X1875Y1217D01*
G01X1875Y1260D01*
G01X1860Y1298D01*
G01X1845Y1315D01*
G01X1818Y1325D01*
G01X1809Y1325D01*
G01X1784Y1315D01*
G01X1767Y1298D01*
G01X1759Y1271D01*
G01X1759Y1260D01*
G01X1767Y1233D01*
G01X1784Y1217D01*
G01X1809Y1206D01*
G01X1818Y1206D01*
G01X1845Y1217D01*
G01X1860Y1233D01*
G01X1875Y1260D01*
G01X2248Y2135D02*
G01X2248Y2324D01*
G01X2248Y2135D02*
G01X2184Y2135D01*
G01X2159Y2145D01*
G01X2142Y2162D01*
G01X2132Y2179D01*
G01X2123Y2206D01*
G01X2123Y2252D01*
G01X2132Y2279D01*
G01X2142Y2297D01*
G01X2159Y2315D01*
G01X2184Y2324D01*
G01X2248Y2324D01*
G01X1974Y2135D02*
G01X2063Y2260D01*
G01X1928Y2260D01*
G01X1974Y2135D02*
G01X1974Y2324D01*
G01X1747Y2135D02*
G01X1834Y2324D01*
G01X1872Y2135D02*
G01X1747Y2135D01*
G01X17175Y2135D02*
G01X17247Y2323D01*
G01X17175Y2135D02*
G01X17104Y2323D01*
G01X17220Y2260D02*
G01X17131Y2260D01*
G01X17045Y2170D02*
G01X17027Y2161D01*
G01X17000Y2135D01*
G01X17000Y2323D01*
G01X3248Y3135D02*
G01X3248Y3323D01*
G01X3248Y3135D02*
G01X3185Y3135D01*
G01X3159Y3144D01*
G01X3141Y3161D01*
G01X3132Y3179D01*
G01X3123Y3206D01*
G01X3123Y3251D01*
G01X3132Y3278D01*
G01X3141Y3296D01*
G01X3159Y3314D01*
G01X3185Y3323D01*
G01X3248Y3323D01*
G01X2974Y3135D02*
G01X3064Y3260D01*
G01X2929Y3260D01*
G01X2974Y3135D02*
G01X2974Y3323D01*
G01X2754Y3197D02*
G01X2763Y3224D01*
G01X2781Y3242D01*
G01X2808Y3251D01*
G01X2817Y3251D01*
G01X2844Y3242D01*
G01X2861Y3224D01*
G01X2870Y3197D01*
G01X2870Y3188D01*
G01X2861Y3161D01*
G01X2844Y3144D01*
G01X2817Y3135D01*
G01X2808Y3135D01*
G01X2781Y3144D01*
G01X2763Y3161D01*
G01X2754Y3197D01*
G01X2754Y3242D01*
G01X2763Y3287D01*
G01X2781Y3314D01*
G01X2808Y3323D01*
G01X2826Y3323D01*
G01X2853Y3314D01*
G01X2861Y3296D01*
G01X2248Y3135D02*
G01X2248Y3323D01*
G01X2248Y3135D02*
G01X2185Y3135D01*
G01X2159Y3144D01*
G01X2141Y3161D01*
G01X2132Y3179D01*
G01X2123Y3206D01*
G01X2123Y3251D01*
G01X2132Y3278D01*
G01X2141Y3296D01*
G01X2159Y3314D01*
G01X2185Y3323D01*
G01X2248Y3323D01*
G01X1974Y3135D02*
G01X2064Y3260D01*
G01X1930Y3260D01*
G01X1974Y3135D02*
G01X1974Y3323D01*
G01X1826Y3135D02*
G01X1853Y3144D01*
G01X1861Y3161D01*
G01X1861Y3179D01*
G01X1853Y3197D01*
G01X1835Y3206D01*
G01X1800Y3215D01*
G01X1774Y3224D01*
G01X1755Y3242D01*
G01X1745Y3260D01*
G01X1745Y3287D01*
G01X1755Y3305D01*
G01X1764Y3314D01*
G01X1791Y3323D01*
G01X1826Y3323D01*
G01X1853Y3314D01*
G01X1861Y3305D01*
G01X1870Y3287D01*
G01X1870Y3260D01*
G01X1861Y3242D01*
G01X1844Y3224D01*
G01X1818Y3215D01*
G01X1782Y3206D01*
G01X1764Y3197D01*
G01X1755Y3179D01*
G01X1755Y3161D01*
G01X1764Y3144D01*
G01X1791Y3135D01*
G01X1826Y3135D01*
G01X3248Y4135D02*
G01X3248Y4323D01*
G01X3248Y4135D02*
G01X3185Y4135D01*
G01X3159Y4144D01*
G01X3141Y4161D01*
G01X3132Y4179D01*
G01X3123Y4206D01*
G01X3123Y4251D01*
G01X3132Y4278D01*
G01X3141Y4296D01*
G01X3159Y4314D01*
G01X3185Y4323D01*
G01X3248Y4323D01*
G01X2956Y4135D02*
G01X3046Y4135D01*
G01X3055Y4215D01*
G01X3046Y4206D01*
G01X3019Y4197D01*
G01X2992Y4197D01*
G01X2965Y4206D01*
G01X2947Y4224D01*
G01X2938Y4251D01*
G01X2938Y4269D01*
G01X2947Y4296D01*
G01X2965Y4314D01*
G01X2992Y4323D01*
G01X3019Y4323D01*
G01X3046Y4314D01*
G01X3055Y4305D01*
G01X3064Y4287D01*
G01X2879Y4170D02*
G01X2861Y4161D01*
G01X2835Y4135D01*
G01X2835Y4323D01*
G01X2248Y4135D02*
G01X2248Y4323D01*
G01X2248Y4135D02*
G01X2185Y4135D01*
G01X2159Y4144D01*
G01X2141Y4161D01*
G01X2132Y4179D01*
G01X2123Y4206D01*
G01X2123Y4251D01*
G01X2132Y4278D01*
G01X2141Y4296D01*
G01X2159Y4314D01*
G01X2185Y4323D01*
G01X2248Y4323D01*
G01X1956Y4135D02*
G01X2046Y4135D01*
G01X2055Y4215D01*
G01X2046Y4206D01*
G01X2019Y4197D01*
G01X1992Y4197D01*
G01X1965Y4206D01*
G01X1947Y4224D01*
G01X1938Y4251D01*
G01X1938Y4269D01*
G01X1947Y4296D01*
G01X1965Y4314D01*
G01X1992Y4323D01*
G01X2019Y4323D01*
G01X2046Y4314D01*
G01X2055Y4305D01*
G01X2064Y4287D01*
G01X1826Y4135D02*
G01X1853Y4144D01*
G01X1870Y4170D01*
G01X1879Y4215D01*
G01X1879Y4242D01*
G01X1870Y4287D01*
G01X1853Y4314D01*
G01X1826Y4323D01*
G01X1808Y4323D01*
G01X1781Y4314D01*
G01X1763Y4287D01*
G01X1754Y4242D01*
G01X1754Y4215D01*
G01X1763Y4170D01*
G01X1781Y4144D01*
G01X1808Y4135D01*
G01X1826Y4135D01*
G01X2248Y5135D02*
G01X2248Y5323D01*
G01X2248Y5135D02*
G01X2185Y5135D01*
G01X2159Y5144D01*
G01X2141Y5161D01*
G01X2132Y5179D01*
G01X2123Y5206D01*
G01X2123Y5251D01*
G01X2132Y5278D01*
G01X2141Y5296D01*
G01X2159Y5314D01*
G01X2185Y5323D01*
G01X2248Y5323D01*
G01X1956Y5135D02*
G01X2046Y5135D01*
G01X2055Y5215D01*
G01X2046Y5206D01*
G01X2019Y5197D01*
G01X1992Y5197D01*
G01X1965Y5206D01*
G01X1947Y5224D01*
G01X1939Y5251D01*
G01X1939Y5269D01*
G01X1947Y5296D01*
G01X1965Y5314D01*
G01X1992Y5323D01*
G01X2019Y5323D01*
G01X2046Y5314D01*
G01X2055Y5305D01*
G01X2064Y5287D01*
G01X1870Y5179D02*
G01X1870Y5170D01*
G01X1861Y5153D01*
G01X1853Y5144D01*
G01X1836Y5135D01*
G01X1801Y5135D01*
G01X1784Y5144D01*
G01X1775Y5153D01*
G01X1764Y5170D01*
G01X1764Y5188D01*
G01X1775Y5206D01*
G01X1793Y5233D01*
G01X1880Y5323D01*
G01X1755Y5323D01*
G01X3248Y5135D02*
G01X3248Y5323D01*
G01X3248Y5135D02*
G01X3185Y5135D01*
G01X3159Y5144D01*
G01X3141Y5161D01*
G01X3132Y5179D01*
G01X3123Y5206D01*
G01X3123Y5251D01*
G01X3132Y5278D01*
G01X3141Y5296D01*
G01X3159Y5314D01*
G01X3185Y5323D01*
G01X3248Y5323D01*
G01X2956Y5135D02*
G01X3046Y5135D01*
G01X3055Y5215D01*
G01X3046Y5206D01*
G01X3019Y5197D01*
G01X2992Y5197D01*
G01X2965Y5206D01*
G01X2947Y5224D01*
G01X2938Y5251D01*
G01X2938Y5269D01*
G01X2947Y5296D01*
G01X2965Y5314D01*
G01X2992Y5323D01*
G01X3019Y5323D01*
G01X3046Y5314D01*
G01X3055Y5305D01*
G01X3064Y5287D01*
G01X2861Y5135D02*
G01X2763Y5135D01*
G01X2817Y5206D01*
G01X2790Y5206D01*
G01X2772Y5215D01*
G01X2763Y5224D01*
G01X2754Y5251D01*
G01X2754Y5269D01*
G01X2763Y5296D01*
G01X2781Y5314D01*
G01X2808Y5323D01*
G01X2835Y5323D01*
G01X2861Y5314D01*
G01X2870Y5305D01*
G01X2879Y5287D01*
G01X1190Y10792D02*
G01X1164Y10819D01*
G01X1122Y10834D01*
G01X1068Y10834D01*
G01X1027Y10819D01*
G01X1000Y10792D01*
G01X1000Y10765D01*
G01X1014Y10738D01*
G01X1027Y10725D01*
G01X1055Y10711D01*
G01X1135Y10684D01*
G01X1164Y10669D01*
G01X1177Y10655D01*
G01X1190Y10628D01*
G01X1190Y10588D01*
G01X1164Y10561D01*
G01X1122Y10546D01*
G01X1068Y10546D01*
G01X1027Y10561D01*
G01X1000Y10588D01*
G01X1281Y10834D02*
G01X1281Y10546D01*
G01X1281Y10834D02*
G01X1457Y10834D01*
G01X1281Y10696D02*
G01X1389Y10696D01*
G01X1547Y10834D02*
G01X1547Y10546D01*
G01X1547Y10834D02*
G01X1656Y10546D01*
G01X1765Y10834D02*
G01X1656Y10546D01*
G01X1765Y10834D02*
G01X1765Y10546D01*
G01X2060Y10765D02*
G01X2047Y10792D01*
G01X2019Y10819D01*
G01X1993Y10834D01*
G01X1938Y10834D01*
G01X1910Y10819D01*
G01X1884Y10792D01*
G01X1869Y10765D01*
G01X1856Y10725D01*
G01X1856Y10655D01*
G01X1869Y10615D01*
G01X1884Y10588D01*
G01X1910Y10561D01*
G01X1938Y10546D01*
G01X1993Y10546D01*
G01X2019Y10561D01*
G01X2047Y10588D01*
G01X2060Y10615D01*
G54D23*
G01X11327Y19728D02*
G01X11327Y19423D01*
G01X11347Y19361D01*
G01X11388Y19319D01*
G01X11448Y19300D01*
G01X11489Y19300D01*
G01X11552Y19319D01*
G01X11593Y19361D01*
G01X11613Y19423D01*
G01X11613Y19728D01*
G01X11789Y19728D02*
G01X12014Y19728D01*
G01X11890Y19565D01*
G01X11952Y19565D01*
G01X11993Y19544D01*
G01X12014Y19525D01*
G01X12034Y19463D01*
G01X12034Y19423D01*
G01X12014Y19361D01*
G01X11972Y19319D01*
G01X11911Y19300D01*
G01X11850Y19300D01*
G01X11789Y19319D01*
G01X11768Y19340D01*
G01X11747Y19382D01*
G54D20*
G01X14877Y19164D02*
G01X14877Y19191D01*
G01X14904Y19246D01*
G01X14932Y19273D01*
G01X14986Y19300D01*
G01X15095Y19300D01*
G01X15150Y19273D01*
G01X15177Y19246D01*
G01X15204Y19191D01*
G01X15204Y19137D01*
G01X15177Y19082D01*
G01X15123Y19000D01*
G01X14850Y18728D01*
G01X15232Y18728D01*
G01X15575Y19300D02*
G01X15493Y19273D01*
G01X15439Y19191D01*
G01X15412Y19055D01*
G01X15412Y18973D01*
G01X15439Y18837D01*
G01X15493Y18755D01*
G01X15575Y18728D01*
G01X15630Y18728D01*
G01X15712Y18755D01*
G01X15766Y18837D01*
G01X15793Y18973D01*
G01X15793Y19055D01*
G01X15766Y19191D01*
G01X15712Y19273D01*
G01X15630Y19300D01*
G01X15575Y19300D01*
G01X727Y19250D02*
G01X454Y19250D01*
G01X427Y19003D01*
G01X454Y19030D01*
G01X536Y19059D01*
G01X618Y19059D01*
G01X700Y19030D01*
G01X754Y18977D01*
G01X782Y18894D01*
G01X782Y18840D01*
G01X754Y18759D01*
G01X700Y18703D01*
G01X618Y18677D01*
G01X536Y18677D01*
G01X454Y18703D01*
G01X427Y18730D01*
G01X400Y18786D01*
G01X5049Y19138D02*
G01X5104Y19165D01*
G01X5186Y19247D01*
G01X5186Y18674D01*
G01X5529Y19247D02*
G01X5447Y19219D01*
G01X5393Y19138D01*
G01X5366Y19001D01*
G01X5366Y18919D01*
G01X5393Y18783D01*
G01X5447Y18701D01*
G01X5529Y18674D01*
G01X5584Y18674D01*
G01X5666Y18701D01*
G01X5720Y18783D01*
G01X5747Y18919D01*
G01X5747Y19001D01*
G01X5720Y19138D01*
G01X5666Y19219D01*
G01X5584Y19247D01*
G01X5529Y19247D01*
G01X10099Y19188D02*
G01X10154Y19215D01*
G01X10236Y19297D01*
G01X10236Y18724D01*
G01X10743Y19297D02*
G01X10470Y19297D01*
G01X10443Y19051D01*
G01X10470Y19078D01*
G01X10552Y19106D01*
G01X10634Y19106D01*
G01X10716Y19078D01*
G01X10770Y19024D01*
G01X10798Y18942D01*
G01X10798Y18888D01*
G01X10770Y18806D01*
G01X10716Y18751D01*
G01X10634Y18724D01*
G01X10552Y18724D01*
G01X10470Y18751D01*
G01X10443Y18778D01*
G01X10416Y18833D01*
G54D10*
G75*
G01X17406Y3616D02*
G03X17406Y3616I-591J0D01*
G01*
G75*
G01X2603Y6648D02*
G03X2603Y6648I-591J0D01*
G01*
M00*
M02*
