G04 Layer: BottomSolderMaskLayer*
G04 EasyEDA v6.2.46, 2019-11-25T11:18:34--3:00*
G04 6be03af1206c45e6bdd76e27ce0583d0,8049b4892286493b98247746b8e7bc66,10*
G04 Gerber Generator version 0.2*
G04 Scale: 100 percent, Rotated: No, Reflected: No *
G04 Dimensions in inches *
G04 leading zeros omitted , absolute positions ,2 integer and 4 decimal *
%FSLAX24Y24*%
%MOIN*%
G90*
G70D02*

%ADD24C,0.078866*%
%ADD25R,0.076900X0.208000*%
%ADD27C,0.070992*%
%ADD29C,0.068000*%
%ADD30C,0.067055*%

%LPD*%
G54D24*
G01X21500Y13750D03*
G01X21500Y14750D03*
G01X20500Y13750D03*
G01X20500Y14750D03*
G01X19500Y13750D03*
G01X19502Y14748D03*
G01X18500Y13750D03*
G01X18502Y14748D03*
G01X17500Y13750D03*
G01X17500Y14750D03*
G01X16502Y13748D03*
G01X16502Y14748D03*
G01X15502Y13748D03*
G01X15502Y14748D03*
G01X14502Y13748D03*
G01X14502Y14748D03*
G01X13502Y13748D03*
G01X13502Y14748D03*
G01X12500Y13750D03*
G01X12502Y14748D03*
G01X11502Y13748D03*
G01X11502Y14748D03*
G01X10502Y13748D03*
G01X10502Y14748D03*
G01X9502Y13748D03*
G01X9502Y14748D03*
G01X8502Y13748D03*
G01X8502Y14748D03*
G01X7502Y13748D03*
G01X7502Y14748D03*
G01X6502Y13748D03*
G01X6502Y14748D03*
G01X5502Y13748D03*
G01X5502Y14748D03*
G01X4502Y13748D03*
G01X4502Y14748D03*
G01X3502Y13748D03*
G01X3502Y14748D03*
G01X2502Y13748D03*
G01X2502Y14748D03*
G01X1505Y13748D03*
G01X1505Y14748D03*
G01X16500Y750D03*
G01X16500Y1750D03*
G01X15500Y750D03*
G01X15500Y1750D03*
G01X14500Y750D03*
G01X14500Y1750D03*
G01X13500Y750D03*
G01X13500Y1750D03*
G01X12500Y750D03*
G01X12500Y1750D03*
G01X11500Y750D03*
G01X11500Y1750D03*
G01X10500Y750D03*
G01X10500Y1750D03*
G01X9500Y750D03*
G01X9500Y1750D03*
G01X8500Y750D03*
G01X8500Y1750D03*
G01X7500Y750D03*
G01X7500Y1750D03*
G01X6500Y750D03*
G01X6500Y1750D03*
G01X5500Y750D03*
G01X5500Y1750D03*
G01X4500Y750D03*
G01X4500Y1750D03*
G01X3500Y750D03*
G01X3500Y1750D03*
G01X2500Y750D03*
G01X2500Y1750D03*
G01X1501Y750D03*
G01X1501Y1750D03*
G01X1498Y2751D03*
G01X2500Y2750D03*
G01X1500Y3750D03*
G01X2500Y3750D03*
G01X1500Y4750D03*
G01X2500Y4750D03*
G36*
G01X21842Y15809D02*
G01X21842Y17890D01*
G01X22610Y17890D01*
G01X22610Y15809D01*
G01X21842Y15809D01*
G37*
G54D25*
G01X21242Y16850D03*
G36*
G01X19873Y15809D02*
G01X19873Y17890D01*
G01X20643Y17890D01*
G01X20643Y15809D01*
G01X19873Y15809D01*
G37*
G36*
G01X18889Y15809D02*
G01X18889Y17890D01*
G01X19657Y17890D01*
G01X19657Y15809D01*
G01X18889Y15809D01*
G37*
G36*
G01X17905Y15809D02*
G01X17905Y17890D01*
G01X18673Y17890D01*
G01X18673Y15809D01*
G01X17905Y15809D01*
G37*
G01X17305Y16850D03*
G36*
G01X15936Y15809D02*
G01X15936Y17890D01*
G01X16706Y17890D01*
G01X16706Y15809D01*
G01X15936Y15809D01*
G37*
G36*
G01X14952Y15809D02*
G01X14952Y17890D01*
G01X15721Y17890D01*
G01X15721Y15809D01*
G01X14952Y15809D01*
G37*
G36*
G01X13968Y15809D02*
G01X13968Y17890D01*
G01X14736Y17890D01*
G01X14736Y15809D01*
G01X13968Y15809D01*
G37*
G01X13368Y16850D03*
G36*
G01X12000Y15809D02*
G01X12000Y17890D01*
G01X12768Y17890D01*
G01X12768Y15809D01*
G01X12000Y15809D01*
G37*
G36*
G01X11015Y15809D02*
G01X11015Y17890D01*
G01X11785Y17890D01*
G01X11785Y15809D01*
G01X11015Y15809D01*
G37*
G36*
G01X10031Y15809D02*
G01X10031Y17890D01*
G01X10800Y17890D01*
G01X10800Y15809D01*
G01X10031Y15809D01*
G37*
G01X9431Y16850D03*
G36*
G01X8063Y15809D02*
G01X8063Y17890D01*
G01X8831Y17890D01*
G01X8831Y15809D01*
G01X8063Y15809D01*
G37*
G36*
G01X7078Y15809D02*
G01X7078Y17890D01*
G01X7847Y17890D01*
G01X7847Y15809D01*
G01X7078Y15809D01*
G37*
G36*
G01X6093Y15809D02*
G01X6093Y17890D01*
G01X6863Y17890D01*
G01X6863Y15809D01*
G01X6093Y15809D01*
G37*
G01X5494Y16850D03*
G36*
G01X4126Y15809D02*
G01X4126Y17890D01*
G01X4894Y17890D01*
G01X4894Y15809D01*
G01X4126Y15809D01*
G37*
G36*
G01X3142Y15809D02*
G01X3142Y17890D01*
G01X3910Y17890D01*
G01X3910Y15809D01*
G01X3142Y15809D01*
G37*
G36*
G01X2156Y15809D02*
G01X2156Y17890D01*
G01X2926Y17890D01*
G01X2926Y15809D01*
G01X2156Y15809D01*
G37*
G01X1557Y16850D03*
G36*
G01X189Y15809D02*
G01X189Y17890D01*
G01X957Y17890D01*
G01X957Y15809D01*
G01X189Y15809D01*
G37*
G36*
G01X8144Y12394D02*
G01X8144Y13105D01*
G01X8855Y13105D01*
G01X8855Y12394D01*
G01X8144Y12394D01*
G37*
G54D27*
G01X9500Y12750D03*
G01X10500Y12750D03*
G01X11500Y12750D03*
G36*
G01X7210Y10809D02*
G01X7210Y11490D01*
G01X7889Y11490D01*
G01X7889Y10809D01*
G01X7210Y10809D01*
G37*
G54D29*
G01X7550Y10150D03*
G01X7550Y9150D03*
G01X7550Y8150D03*
G01X7550Y7150D03*
G01X7550Y6150D03*
G54D30*
G01X18150Y11150D03*
G01X18150Y9378D03*
G01X20709Y9378D03*
G01X20750Y11150D03*
G01X18100Y5950D03*
G01X20700Y5950D03*
G01X18100Y4178D03*
G01X20659Y4178D03*
G54D24*
G01X17628Y8175D03*
G01X17628Y7025D03*
G01X21171Y7075D03*
G01X21171Y8225D03*
G54D30*
G01X4150Y10650D03*
M00*
M02*
